<svg width="677" height="744" viewBox="0 0 677 744" fill="none" xmlns="http://www.w3.org/2000/svg">
<path d="M446.945 206.447C443.509 192.477 434.089 180.848 422.644 172.432C410.665 163.624 396.6 157.549 382.072 154.425C380.229 154.024 378.375 153.682 376.521 153.381C374.607 153.07 373.932 156.002 375.856 156.323C390.445 158.703 404.56 164.016 416.932 172.111C428.649 179.773 438.764 190.509 443.116 204.006C445.292 210.745 445.927 217.916 444.577 224.885C443.217 231.915 440.124 238.463 436.396 244.529C428.528 257.333 417.798 268.129 410.725 281.456C403.089 295.837 399.079 312.026 399.039 328.295C399.039 330.234 402.051 330.123 402.061 328.195C402.091 313.402 405.537 298.679 412.096 285.413C418.936 271.574 429.737 260.507 438.028 247.612C441.947 241.526 445.262 234.938 447.015 227.888C448.768 220.838 448.688 213.517 446.955 206.467L446.945 206.447Z" fill="#191F28"/>
<path d="M292.628 238.825C292.195 236.244 291.912 233.653 291.781 231.041C291.691 229.103 288.668 229.204 288.759 231.142C289.283 241.747 292.598 251.9 295.56 262.013C298.461 271.905 301.212 282.27 299.892 292.664C297.131 314.296 278.795 328.868 261.93 340.357C244.379 352.318 226.567 364.138 211.918 379.674C197.843 394.598 187.95 412.604 182.721 432.409C177.563 451.942 176.777 472.58 179.588 492.535C179.93 494.985 180.333 497.436 180.787 499.876C181.139 501.784 184.031 500.9 183.678 499.012C180.041 479.178 179.981 458.56 184.283 438.826C188.615 418.951 197.531 400.433 211.031 385.127C225.116 369.149 242.727 356.947 260.297 345.107C277.344 333.618 295.69 320.322 301.564 299.553C307.438 278.765 296.033 258.93 292.628 238.825Z" fill="#191F28"/>
<path d="M401.023 123.232C400.449 121.947 399.996 120.109 398.495 119.627C396.953 119.125 394.888 120.31 393.507 120.903C390.797 122.057 388.158 123.363 385.609 124.839C380.42 127.852 375.594 131.558 371.454 135.896C366.829 140.747 363.071 146.441 360.704 152.718C360.029 154.506 362.698 155.932 363.384 154.114C367.262 143.84 374.798 135.434 383.926 129.429C386.173 127.953 388.51 126.607 390.908 125.402C392.178 124.769 393.457 124.166 394.767 123.624C395.432 123.343 396.097 123.082 396.782 122.851C396.993 122.781 397.225 122.69 397.447 122.63C397.447 122.64 397.447 122.64 397.467 122.66C397.598 122.951 397.729 123.232 397.86 123.524C400.651 129.67 403.361 135.886 405.255 142.374C407.421 149.796 408.469 157.619 407.149 165.292C406.826 167.2 409.768 167.873 410.101 165.954C412.67 151.011 407.058 136.64 401.023 123.253V123.232Z" fill="#191F28"/>
<path d="M321.835 145.176C321.392 143.288 318.49 144.162 318.943 146.04C321.099 155.168 321.14 164.669 319.094 173.818C318.671 175.706 321.623 176.379 322.046 174.481C324.202 164.82 324.112 154.807 321.835 145.176Z" fill="#191F28"/>
<path d="M331.567 141.812C330.57 149.103 329.522 156.605 325.643 163.012C324.636 164.669 327.316 166.065 328.323 164.408C332.333 157.78 333.481 150.016 334.519 142.474C334.781 140.566 331.829 139.883 331.567 141.812Z" fill="#191F28"/>
<path d="M368.179 153.16C358.074 151.302 348.523 154.807 339.567 159.165C345.773 149.153 347.949 137.162 349.641 125.582C349.924 123.674 346.972 122.991 346.689 124.92C344.785 137.925 342.418 151.714 333.753 162.128C333.28 162.419 333.088 162.841 333.109 163.273C332.937 164.568 334.63 165.774 335.678 164.548C335.698 164.528 335.708 164.508 335.728 164.478C345.47 159.417 356.2 154.024 367.514 156.102C369.418 156.454 370.104 153.511 368.179 153.16Z" fill="#191F28"/>
<path d="M319.266 175.686C313.16 171.046 305.04 170.664 297.655 170.845C289.444 171.056 281.233 172.522 273.455 175.174C271.501 175.836 269.576 176.58 267.682 177.403C266.171 178.056 264.076 178.648 263.37 180.295C262.705 181.842 263.511 184.082 263.834 185.658C264.207 187.476 264.64 189.274 265.123 191.061C267.068 198.202 269.929 205.101 273.566 211.548C277.677 218.839 282.835 225.548 288.799 231.423C290.18 232.789 292.245 230.579 290.865 229.224C281.152 219.663 273.768 207.843 269.456 194.928C268.367 191.674 267.471 188.36 266.776 185.005C266.635 184.333 266.504 183.66 266.383 182.987C266.232 182.153 265.899 181.591 266.715 181.139C268.418 180.205 270.352 179.532 272.166 178.849C279.198 176.218 286.603 174.591 294.099 174.049C298.229 173.758 302.451 173.687 306.561 174.179C310.319 174.621 314.138 175.575 317.2 177.905C318.732 179.07 320.807 176.881 319.266 175.706V175.686Z" fill="#191F28"/>
<path d="M301.786 203.384C301.514 202.6 300.718 202.138 299.902 202.369C296.617 203.313 293.444 204.709 290.532 206.497C289.857 206.909 289.575 207.893 290.038 208.566C290.502 209.239 291.399 209.5 292.114 209.058C294.915 207.33 297.585 206.156 300.768 205.252C301.524 205.031 302.048 204.137 301.786 203.374V203.384Z" fill="#191F28"/>
<path d="M301.604 208.325C301.101 207.582 300.295 207.481 299.529 207.833C296.839 209.048 294.22 210.404 291.661 211.89C290.975 212.292 290.714 213.296 291.167 213.959C291.64 214.652 292.517 214.883 293.242 214.451C295.791 212.964 298.421 211.609 301.111 210.394C301.836 210.062 302.028 208.937 301.604 208.325Z" fill="#191F28"/>
<path d="M310.037 187.255C309.04 186.753 307.831 186.492 306.763 186.14C305.453 185.718 304.133 185.307 302.793 184.945C300.254 184.252 297.665 183.75 295.046 183.479C290.381 183.007 285.152 182.927 280.608 184.252C278.755 184.795 277.012 185.909 276.448 187.848C275.843 189.916 276.427 192.407 276.881 194.456C277.979 199.437 280.407 203.996 283.752 207.833C285.031 209.289 287.076 207.079 285.817 205.633C283.379 202.841 281.535 199.547 280.427 196.012C279.883 194.275 279.5 192.487 279.319 190.68C279.248 189.947 279.107 189.043 279.49 188.37C279.853 187.717 280.629 187.406 281.304 187.195C285.051 186.04 289.464 186.07 293.343 186.331C297.544 186.622 301.625 187.647 305.624 188.922C306.239 189.123 306.864 189.324 307.478 189.525C307.488 189.525 307.508 189.535 307.518 189.545C307.398 189.806 307.287 190.067 307.196 190.228C306.874 190.8 306.551 191.373 306.229 191.945C305.02 194.094 303.811 196.233 302.602 198.382C301.645 200.07 304.325 201.476 305.282 199.778C306.571 197.489 307.861 195.199 309.151 192.919C309.987 191.443 312.475 188.49 310.017 187.255H310.037Z" fill="#191F28"/>
<path d="M249.255 303.59C248.721 298.981 246.152 294.813 242.697 291.78C238.858 288.416 234.204 286.688 229.136 286.327C223.111 285.895 217.066 287.442 211.475 289.561C206.236 291.539 201.168 294.009 196.191 296.56C186.69 301.451 177.563 307.075 169.019 313.482C151.741 326.427 136.729 342.596 126.402 361.607C115.874 381 110.101 403.234 111.34 425.339C112.58 447.443 121.093 469.004 133.495 487.212C144.849 503.873 159.861 518.093 177.391 528.156C181.623 530.587 186.005 532.756 190.499 534.664C192.272 535.417 193.692 532.756 191.899 531.993C173.583 524.209 157.423 511.957 144.577 496.823C130.876 480.684 120.72 461.01 116.358 440.282C111.804 418.69 114.726 396.024 123.058 375.697C131.218 355.772 144.436 338.368 160.586 324.178C168.546 317.178 177.2 310.982 186.287 305.518C190.751 302.837 195.325 300.336 199.979 298.007C205.127 295.436 210.376 292.945 215.877 291.208C221.439 289.46 227.474 288.496 233.216 289.972C237.579 291.097 241.538 294.02 243.986 297.786C246.424 301.552 247.17 306.151 245.024 310.229C242.656 314.738 237.972 318.002 233.811 320.743C216.21 332.333 194.7 335.757 176.646 346.473C159.861 356.435 146.794 372.303 139.58 390.34C132.336 408.477 131.178 428.462 136.709 447.232C142.18 465.801 153.675 482.683 169.1 494.453C172.858 497.315 176.827 499.886 180.988 502.115C182.701 503.029 184.101 500.368 182.388 499.444C164.999 490.134 151.116 474.659 143.318 456.602C135.44 438.364 134.049 418.088 139.731 399.027C145.333 380.206 157.373 363.164 173.613 351.986C191.204 339.885 212.895 336.37 231.282 325.825C235.795 323.244 240.269 320.231 243.956 316.545C247.422 313.091 249.84 308.561 249.265 303.55L249.255 303.59Z" fill="#191F28"/>
<path d="M189.854 310.028C183.789 312.036 178.066 315.019 172.979 318.885C172.334 319.378 172.021 320.221 172.485 320.954C172.878 321.597 173.915 321.948 174.56 321.446C179.447 317.741 184.887 314.848 190.72 312.91C192.564 312.297 191.698 309.415 189.854 310.028Z" fill="#191F28"/>
<path d="M188.383 317.891C184.958 318.363 181.673 319.568 178.822 321.537C178.177 321.989 177.855 322.913 178.328 323.605C178.772 324.248 179.709 324.58 180.404 324.098C181.038 323.666 181.693 323.254 182.368 322.892C182.721 322.702 183.074 322.531 183.426 322.36C183.487 322.33 183.658 322.26 183.668 322.25C183.859 322.169 184.051 322.089 184.242 322.019C184.958 321.738 185.693 321.507 186.439 321.306C187.184 321.115 187.899 320.974 188.474 320.894C189.26 320.783 189.995 320.201 189.935 319.337C189.874 318.594 189.209 317.771 188.373 317.881L188.383 317.891Z" fill="#191F28"/>
<path d="M247.654 284.891C239.513 276.364 227.746 271.654 215.958 272.136C214.014 272.217 214.114 275.23 216.059 275.149C227.101 274.697 237.982 279.116 245.588 287.1C246.928 288.506 248.983 286.297 247.654 284.901V284.891Z" fill="#191F28"/>
<path d="M250.605 279.307C246.001 274.838 240.843 270.309 234.244 269.355C233.438 269.234 232.622 269.656 232.44 270.489C232.269 271.233 232.773 272.177 233.579 272.287C239.664 273.161 244.309 277.389 248.55 281.496C249.941 282.852 252.006 280.643 250.616 279.297L250.605 279.307Z" fill="#191F28"/>
<path d="M465.089 313.03C463.377 308.461 461.08 304.092 458.249 300.115C455.478 296.229 452.264 292.443 448.264 289.771C444.355 287.16 439.701 286.327 435.157 287.642C430.482 288.998 426.503 292.101 423.047 295.426C416.105 302.114 410.554 310.048 405.305 318.082C399.583 326.839 394.162 335.817 387.483 343.892C387.231 343.52 386.989 343.119 386.747 342.757C386.022 341.642 385.276 340.548 384.511 339.473C382.969 337.294 381.327 335.185 379.614 333.126C379.09 332.493 377.982 332.664 377.478 333.196C376.864 333.859 377.035 334.693 377.549 335.325C379.231 337.344 380.813 339.453 382.324 341.602C383.08 342.677 383.805 343.771 384.511 344.876C385.216 345.971 385.982 346.945 387.08 347.658C387.765 348.1 388.762 347.688 389.115 347.015C389.216 346.814 389.276 346.613 389.286 346.423C400.52 333.016 408.126 317.027 419.44 303.691C422.291 300.326 425.354 296.982 428.89 294.321C432.326 291.74 436.567 289.5 441.01 290.093C445.252 290.665 448.677 293.558 451.488 296.58C454.581 299.905 457.211 303.671 459.347 307.668C460.556 309.937 461.593 312.277 462.46 314.698C463.316 317.088 464.213 319.639 464.374 322.189C464.515 324.459 463.77 326.488 461.795 327.723C460.405 328.597 458.793 328.978 457.171 329.109C457.977 326.407 457.604 323.405 456.747 320.723C456.153 318.875 453.262 319.739 453.856 321.587C454.743 324.349 455.186 327.723 453.322 330.204C452.163 331.74 450.521 332.925 448.738 333.799C448.758 333.769 448.778 333.739 448.788 333.708C450.441 330.404 450.652 326.508 449.494 323.013C448.879 321.175 445.987 322.039 446.602 323.877C448.526 329.671 445.494 336.38 439.147 337.444C437.132 337.786 434.129 337.454 432.568 335.838C432.477 335.576 432.306 335.366 432.084 335.215C431.973 335.044 431.883 334.863 431.802 334.673C431.187 333.126 432.316 331.298 433.092 330.003C433.837 328.767 434.784 327.703 436.215 327.341C437.484 327.02 437.645 325.122 436.477 324.56C432.195 322.491 429.676 318.002 430.019 313.292C430.16 311.353 427.137 311.484 426.996 313.392C426.644 318.192 428.961 322.923 432.759 325.795C431.026 327.191 429.827 329.32 429.082 331.348C428.387 333.236 428.588 335.044 429.445 336.561C426.613 345.78 423.752 355.019 419.914 363.887C416.085 372.735 411.29 381.492 404.6 388.532C397.88 395.602 388.611 400.613 378.607 399.067C369.66 397.691 360.784 393.212 353.833 387.518C350.044 384.414 346.69 380.819 343.989 376.732C340.796 371.881 338.569 366.508 336.464 361.125C335.758 359.328 332.857 360.181 333.572 361.989C335.537 366.99 337.582 372.001 340.352 376.621C342.77 380.638 345.793 384.304 349.228 387.508C356.17 393.965 364.895 398.735 374.063 401.186C379.141 402.542 384.39 402.793 389.498 401.447C394.384 400.151 398.837 397.621 402.706 394.417C410.635 387.859 416.287 378.67 420.669 369.491C425.334 359.709 428.649 349.355 431.832 339.011C432.074 339.172 432.326 339.322 432.598 339.453C436.719 341.522 441.635 340.648 445.192 337.967C445.433 338.037 445.705 338.057 446.008 337.987C449.574 337.103 453.292 335.114 455.569 332.152C455.639 332.152 455.71 332.172 455.79 332.172C459.77 332.182 464.273 330.907 466.349 327.231C468.777 322.933 466.641 317.258 465.059 313.03H465.089Z" fill="#191F28"/>
<path d="M396.469 290.294C395.573 290.324 395.079 291.037 395.009 291.85C394.515 297.685 392.54 303.309 389.407 308.25C388.974 308.943 389.367 309.927 390.042 310.279C390.817 310.68 391.644 310.329 392.077 309.646C395.502 304.243 397.477 298.097 398.021 291.74C398.092 290.926 397.205 290.264 396.459 290.284L396.469 290.294Z" fill="#191F28"/>
<path d="M390.243 294.17C390.092 293.367 389.085 292.945 388.359 293.156C387.503 293.407 387.19 294.23 387.342 295.034C387.402 295.365 387.191 295.787 387.049 296.078C386.818 296.57 386.536 297.052 386.264 297.524C385.72 298.468 385.125 299.392 384.5 300.286C383.281 302.014 381.891 303.63 380.4 305.127C379.826 305.709 379.886 306.714 380.471 307.256C381.085 307.828 382.032 307.758 382.606 307.186C384.39 305.388 385.982 303.43 387.412 301.351C388.087 300.367 388.712 299.352 389.296 298.308C390.032 296.992 390.525 295.697 390.233 294.18L390.243 294.17Z" fill="#191F28"/>
<path d="M372.239 542.538H198.387C197.269 541.413 196.382 540.228 195.587 538.711C194.811 537.245 194.166 535.267 193.934 533.63C193.823 532.826 193.249 532.143 192.373 532.173C191.617 532.204 190.801 532.917 190.912 533.73C191.526 538.159 193.592 542.266 196.896 545.309L198.538 545.54H372.34C374.285 545.54 374.184 542.528 372.239 542.528V542.538Z" fill="#191F28"/>
<path d="M387.281 526.67C383.644 522.09 377.992 519.941 372.37 519.007C366.023 517.953 359.515 517.842 353.097 517.521C346.488 517.19 339.869 516.868 333.27 516.225C325.855 515.502 318.48 514.388 311.266 512.52C309.382 512.038 308.717 514.97 310.601 515.462C322.55 518.555 334.892 519.56 347.183 520.223C353.268 520.554 359.354 520.745 365.429 521.217C371 521.649 377.015 522.321 381.74 525.565C386.364 528.739 389.195 534.925 385.679 539.967C384.571 541.553 387.261 542.939 388.359 541.362C391.472 536.893 390.566 530.777 387.291 526.67H387.281Z" fill="#191F28"/>
<path d="M384.218 534.533C383.231 531.43 381.095 528.809 378.556 526.811C377.912 526.308 377.015 526.258 376.42 526.881C375.897 527.443 375.846 528.498 376.491 529.01C378.546 530.627 380.38 532.655 381.236 535.166C382.093 537.657 381.881 540.368 380.38 542.568C379.916 543.241 380.36 544.255 381.015 544.596C381.811 545.008 382.596 544.636 383.05 543.964C384.904 541.242 385.186 537.627 384.198 534.533H384.218Z" fill="#191F28"/>
<path d="M375.413 535.688C374.748 534.443 373.871 533.298 372.884 532.294C372.411 531.812 371.897 531.38 371.353 530.978C370.688 530.486 369.973 529.934 369.126 529.833C368.32 529.743 367.514 530.115 367.323 530.968C367.162 531.691 367.645 532.676 368.461 532.766C368.905 532.816 369.277 533.148 369.61 533.409C370.033 533.74 370.436 534.102 370.819 534.483C371.585 535.257 372.219 536.12 372.743 537.074C373.217 537.928 373.69 538.922 373.549 539.926C373.378 541.111 372.673 542.176 372.048 543.17C371.615 543.863 372.008 544.847 372.693 545.199C373.458 545.601 374.305 545.259 374.728 544.566C375.524 543.281 376.33 541.905 376.531 540.378C376.753 538.691 376.199 537.155 375.413 535.678V535.688Z" fill="#191F28"/>
<path d="M377.932 423.38C374.617 417.254 369.479 412.293 364.099 407.955C352.694 398.776 339.355 391.073 324.384 390.309C317.049 389.928 309.826 391.464 303.307 394.839C297.131 398.022 291.761 402.622 286.895 407.523C285.666 408.758 284.467 410.023 283.288 411.299C281.969 412.725 284.175 414.784 285.495 413.358C294.713 403.415 305.554 394.176 319.729 393.342C334.146 392.499 347.586 399.217 358.81 407.663C364.109 411.65 369.358 416.029 373.197 421.492C377.166 427.136 379.04 433.684 379.302 440.533C379.826 454.041 375.332 467.739 369.328 479.69C362.578 493.147 353.349 505.189 343.274 516.336C341.974 517.772 344.181 519.831 345.481 518.395C354.89 507.99 363.575 496.793 370.265 484.43C376.894 472.188 381.79 458.419 382.314 444.41C382.586 437.179 381.408 429.818 377.932 423.4V423.38Z" fill="#191F28"/>
<path d="M410.332 417.505C413.748 406.177 416.851 393.915 413.325 382.215C412.76 380.357 409.869 381.221 410.433 383.079C413.466 393.162 411.159 403.767 408.328 413.619C405.376 423.913 401.729 433.995 398.363 444.159C391.775 464.104 386.163 485.324 389.578 506.454C390.042 509.296 390.666 512.098 391.422 514.88C392.218 517.802 393.104 520.725 393.447 523.748C393.951 528.277 393.074 533.62 388.994 536.331C387.382 537.406 388.954 539.977 390.576 538.902C394.223 536.472 396.087 532.364 396.51 528.106C397.013 522.974 395.381 517.993 394.072 513.102C391.271 502.567 391.019 491.561 392.379 480.785C395.14 458.891 403.995 438.485 410.312 417.505H410.332Z" fill="#191F28"/>
<path d="M393.296 397.982C391.513 410.797 387.009 423.069 380.078 434.005C379.04 435.642 381.72 437.038 382.758 435.401C389.81 424.274 394.434 411.68 396.248 398.645C396.51 396.737 393.568 396.054 393.296 397.982Z" fill="#191F28"/>
<path d="M500.392 369.571C497.964 366.227 495.012 363.325 491.697 360.854C488.624 358.564 485.29 356.496 482.69 353.643C479.789 350.46 478.852 346.423 479.869 342.245C480.957 337.776 483.597 333.799 486.005 329.942C490.881 322.159 495.042 313.723 496.573 304.595C497.964 296.289 497.027 287.532 493.037 280.04C489.259 272.96 482.741 267.989 475.094 265.659C467.528 263.349 459.236 263.58 451.609 265.518C447.972 266.442 444.365 267.828 441.403 270.178C438.643 272.377 436.306 275.732 436.668 279.417C436.87 281.416 438.482 282.792 440.497 282.39C442.35 282.029 443.7 280.623 444.96 279.327C447.771 276.415 451.337 274.275 455.196 273.04C462.762 270.61 471.124 271.845 477.482 276.686C484.282 281.868 487.788 289.711 487.506 298.197C487.174 308.049 482.458 317.017 478.046 325.594C473.844 333.769 468.837 343.129 472.414 352.448C475.608 360.774 483.214 365.815 489.531 371.61C495.445 377.033 501.792 385.951 496.855 394.035C492.402 401.336 482.549 402.572 475.205 405.253C471.356 406.659 467.749 408.567 464.817 411.46C462.208 414.03 460.183 417.214 458.883 420.618C457.594 424.003 456.939 427.628 457.08 431.254C457.241 435.231 458.45 438.846 460.243 442.371C462.178 446.197 464.898 450.897 462.631 455.176C461.724 456.893 464.404 458.289 465.311 456.572C467.457 452.524 466.298 447.995 464.465 444.078C462.702 440.322 460.656 436.878 460.213 432.67C459.478 425.68 462.017 418.449 467.024 413.508C473.149 407.462 482.257 406.87 489.783 403.425C493.249 401.839 496.563 399.629 498.81 396.506C501.147 393.262 502.004 389.315 501.399 385.389C500.039 376.481 493.057 370.565 486.559 365.042C480.141 359.579 473.321 352.95 474.288 343.781C474.792 339.001 476.897 334.562 479.033 330.324C481.159 326.096 483.416 321.928 485.37 317.61C489.209 309.114 491.889 299.623 489.813 290.304C488.151 282.822 483.083 276.284 476.484 272.438C469.694 268.481 461.402 267.798 453.977 270.289C450.229 271.544 446.773 273.562 443.852 276.224C443.167 276.857 442.552 277.549 441.887 278.202C441.555 278.524 440.376 279.668 439.842 279.478C439.409 279.327 439.751 277.831 439.842 277.429C440.033 276.605 440.386 275.832 440.839 275.119C442.733 272.156 446.28 270.369 449.514 269.264C453.151 268.029 456.989 267.326 460.818 267.095C468.313 266.643 476.162 268.089 482.408 272.428C489.068 277.047 492.876 284.72 493.873 292.624C494.982 301.421 492.775 310.178 489.078 318.142C487.153 322.28 484.806 326.156 482.398 330.033C480.091 333.759 477.774 337.675 476.827 341.994C475.94 346.001 476.524 350.169 478.842 353.603C480.967 356.747 484.05 359.026 487.093 361.216C490.347 363.556 493.47 365.956 496.11 368.989C498.76 372.042 500.906 375.617 502.175 379.453C504.603 386.744 503.656 395.281 498.689 401.346C493.521 407.643 485.259 408.758 477.915 411.048C474.338 412.162 470.822 413.629 467.88 415.999C467.245 416.511 466.923 417.314 467.387 418.068C467.759 418.69 468.837 419.072 469.462 418.56C475.829 413.408 484.393 413.036 491.717 409.943C495.354 408.407 498.659 406.227 501.127 403.114C503.555 400.051 505.198 396.415 505.973 392.599C507.626 384.485 505.208 376.189 500.402 369.571H500.392Z" fill="#191F28"/>
<path d="M471.87 442.09C469.472 436.556 464.193 429.526 468.203 423.501C469.271 421.884 466.591 420.498 465.523 422.105C461.614 427.98 464.989 434.919 467.769 440.453C469.361 443.616 470.61 446.85 470.903 450.415C471.185 453.92 470.701 457.475 469.412 460.759C468.706 462.547 471.376 463.963 472.091 462.155C474.63 455.698 474.65 448.497 471.87 442.1V442.09Z" fill="#191F28"/>
<path d="M457.312 420.558C443.529 412.845 426.543 409.993 411.41 415.336C409.577 415.979 410.443 418.871 412.277 418.218C426.714 413.117 442.763 415.868 455.911 423.23C457.604 424.184 459.014 421.512 457.312 420.558Z" fill="#191F28"/>
<path d="M489.33 464.576C487.365 451.038 481.038 437.922 470.258 429.215C468.757 428 466.681 430.199 468.192 431.414C486.539 446.238 490.74 472.6 483.496 494.101C479.94 504.646 473.633 514.307 465.301 521.719C456.747 529.321 445.927 534.222 434.633 536.04C421.838 538.099 408.438 536.271 396.883 530.356C395.16 529.472 393.749 532.143 395.482 533.027C417.062 544.064 444.799 541.533 463.981 526.7C482.559 512.339 492.705 487.825 489.34 464.576H489.33Z" fill="#191F28"/>
<path d="M463.991 517.421C458.087 506.464 450.975 496.19 442.814 486.79C438.784 482.14 434.492 477.712 429.968 473.534C425.475 469.386 420.79 465.389 415.672 462.035C409.919 458.269 403.532 455.547 396.621 455.045C394.676 454.904 394.807 457.917 396.721 458.058C408.741 458.932 418.775 467.388 427.268 475.151C436.054 483.175 443.952 492.133 450.803 501.844C454.682 507.338 458.218 513.072 461.402 518.987C462.329 520.695 464.898 519.108 463.981 517.411L463.991 517.421Z" fill="#191F28"/>
<path d="M414.151 477.189C409.164 474.086 404.066 470.993 398.273 469.657C396.379 469.215 395.704 472.158 397.608 472.6C403.129 473.875 407.995 476.908 412.75 479.871C413.446 480.303 414.433 479.911 414.786 479.238C415.189 478.475 414.836 477.641 414.151 477.209V477.189Z" fill="#191F28"/>
<path d="M455.276 526.961C448.929 513.363 439.922 501.081 428.9 490.888C427.47 489.572 425.415 491.771 426.835 493.087C437.686 503.11 446.461 515.171 452.697 528.538C453.513 530.295 456.082 528.699 455.276 526.961Z" fill="#191F28"/>
<path d="M443.328 534.001C435.641 516.818 422.946 501.503 406.837 491.54C402.071 488.598 396.903 486.268 391.412 485.013C389.518 484.581 388.843 487.523 390.747 487.955C397.275 489.441 403.26 492.545 408.72 496.371C401.235 507.187 398.364 520.644 400.892 533.559C401.265 535.467 404.157 534.584 403.784 532.696C401.457 520.815 404.167 508.041 411.128 498.118C412.509 499.163 413.859 500.248 415.178 501.362C415.692 501.794 416.186 502.236 416.68 502.678C411.844 513.072 408.257 524.491 409.708 536.06C409.95 537.968 412.972 537.878 412.73 535.959C411.37 525.154 414.564 514.568 419.017 504.817C421.344 507.006 423.541 509.316 425.636 511.736C425.505 511.897 425.415 512.098 425.354 512.349C423.541 520.685 421.848 529.181 423.47 537.687C423.833 539.595 426.724 538.711 426.362 536.823C424.941 529.392 426.392 521.839 427.964 514.538C429.757 516.778 431.459 519.098 433.041 521.498C435.842 525.746 438.32 530.215 440.396 534.865C440.728 535.618 441.424 536.12 442.28 535.879C442.985 535.678 443.63 534.744 443.297 534.001H443.328Z" fill="#191F28"/>
<path d="M427.792 414.271C419.309 426.433 415.984 441.146 412.851 455.387C412.438 457.275 415.38 457.947 415.803 456.049C418.886 442.04 422.12 427.638 430.472 415.667C431.58 414.081 428.89 412.695 427.792 414.271Z" fill="#191F28"/>
<path d="M427.742 446.981C425.616 453.981 424.165 461.151 423.39 468.422C423.299 469.235 423.672 470.019 424.528 470.22C425.253 470.39 426.251 469.888 426.331 469.085C427.107 461.814 428.558 454.643 430.684 447.644C431.248 445.786 428.296 445.133 427.732 446.981H427.742Z" fill="#191F28"/>
<path d="M436.799 425.64C434.512 429.687 432.558 433.905 430.936 438.264C430.654 439.027 430.784 439.88 431.58 440.292C432.235 440.634 433.333 440.423 433.616 439.66C435.227 435.301 437.192 431.083 439.479 427.036C440.436 425.349 437.756 423.953 436.799 425.64Z" fill="#191F28"/>
<path d="M488.927 486.358C485.985 473.152 481.945 460.217 476.827 447.694C476.101 445.906 473.2 446.76 473.935 448.557C478.922 460.779 482.882 473.383 485.803 486.248C478.358 477.661 469.019 470.852 458.621 466.333C458.672 466.152 458.682 465.951 458.652 465.731C456.959 454.402 452.476 443.626 445.504 434.518C445.836 433.825 446.159 433.132 446.491 432.449C447.408 430.601 448.375 428.773 449.373 426.955C451.559 430.47 453.705 434.005 455.77 437.591C456.737 439.278 459.317 437.691 458.349 436.014C456.012 431.957 453.594 427.94 451.095 423.973C451.095 423.973 451.095 423.973 451.095 423.963C451.73 422.888 452.365 421.814 453.03 420.759C454.057 419.112 451.367 417.716 450.35 419.363C441.917 432.931 435.842 447.945 432.477 463.551C432.195 464.847 431.943 466.152 431.701 467.458C431.58 467.568 431.47 467.699 431.389 467.86C431.177 468.251 431.177 468.824 431.389 469.266C430.956 471.826 430.583 474.397 430.281 476.978C430.059 478.887 433.011 479.569 433.233 477.641C433.495 475.331 433.817 473.032 434.2 470.742C441.272 473.584 447.942 477.33 454.037 481.849C454.4 484.762 454.088 487.734 453.554 490.606C453.03 493.499 452.224 496.331 451.136 499.062C450.833 499.816 450.995 500.689 451.77 501.091C452.435 501.443 453.503 501.212 453.806 500.458C454.994 497.486 455.921 494.423 456.496 491.269C456.909 489 457.221 486.65 457.211 484.31C459.609 486.258 461.896 488.337 464.082 490.526C464.082 490.556 464.062 490.576 464.052 490.616C462.49 496.773 460.344 502.758 457.624 508.513C456.798 510.26 459.468 511.666 460.304 509.909C462.863 504.486 464.938 498.841 466.52 493.057C467.477 494.091 468.404 495.156 469.311 496.23C470.207 497.295 471.064 498.4 471.9 499.514C471.688 499.715 471.527 499.976 471.437 500.278C469.875 505.45 467.769 510.421 465.17 515.161C464.233 516.858 466.913 518.264 467.85 516.557C470.338 512.028 472.353 507.247 473.935 502.336C474.953 503.803 475.93 505.299 476.857 506.826C477.864 508.483 480.444 506.906 479.436 505.249C471.235 491.751 459.458 480.493 445.615 472.831C442.109 470.882 438.462 469.205 434.734 467.749C435.006 466.313 435.288 464.887 435.61 463.461C450.279 464.837 464.475 470.903 475.678 480.413C478.892 483.145 481.884 486.147 484.554 489.401C485.078 490.034 485.864 490.355 486.63 489.893C487.113 489.602 487.446 488.899 487.335 488.297C488.231 488.297 489.189 487.523 488.937 486.378L488.927 486.358ZM448.143 462.647C444.245 461.593 440.275 460.91 436.265 460.498C438.179 452.665 440.799 445.002 444.063 437.621C449.927 445.745 453.896 455.156 455.498 465.048C453.09 464.124 450.642 463.31 448.143 462.637V462.647Z" fill="#191F28"/>
<path d="M476.635 473.132C475.829 470.441 474.731 467.829 473.381 465.359C473.008 464.666 471.95 464.425 471.306 464.867C470.6 465.349 470.409 466.193 470.812 466.936C471.134 467.538 471.447 468.141 471.749 468.753C471.809 468.874 471.87 469.004 471.92 469.125C471.94 469.155 472.051 469.406 472.071 469.466C472.192 469.738 472.303 469.999 472.414 470.27C472.918 471.485 473.361 472.73 473.734 473.996C473.955 474.749 474.842 475.271 475.618 475.01C476.393 474.739 476.877 473.945 476.635 473.132Z" fill="#191F28"/>
<path d="M489.743 264.434C488.231 263.238 486.156 265.428 487.677 266.633C496.473 273.613 501.47 284.569 500.976 295.757C500.885 297.695 503.908 297.575 503.999 295.657C504.533 283.756 499.092 271.855 489.743 264.434Z" fill="#191F28"/>
<path d="M507.958 281.245C507.605 280.512 506.517 280.351 505.883 280.753C505.127 281.215 505.036 282.089 505.389 282.822C506.991 286.176 508.23 289.992 507.182 293.698C506.961 294.482 507.555 295.325 508.321 295.496C509.157 295.687 509.902 295.144 510.124 294.361C511.383 289.882 509.892 285.292 507.958 281.245Z" fill="#191F28"/>
<path d="M470.882 362.913C466.711 356.867 465.079 349.345 466.47 342.134C466.832 340.236 463.891 339.563 463.518 341.472C461.986 349.425 463.699 357.811 468.313 364.49C469.412 366.086 471.991 364.51 470.893 362.913H470.882Z" fill="#191F28"/>
<path d="M465.23 364.088C465.15 363.997 465.069 363.897 464.979 363.807C464.989 363.817 464.999 363.837 465.009 363.847C464.999 363.827 464.979 363.807 464.958 363.787C464.898 363.706 464.898 363.706 464.918 363.726C464.908 363.716 464.898 363.696 464.888 363.686C464.707 363.455 464.525 363.214 464.354 362.973C464.021 362.501 463.719 362.009 463.447 361.497C463.316 361.256 463.185 361.005 463.064 360.744C463.064 360.724 463.044 360.714 463.044 360.693C463.044 360.693 463.044 360.693 463.024 360.653C463.014 360.623 462.994 360.593 462.984 360.563C462.984 360.573 462.994 360.593 463.004 360.603C462.954 360.483 462.903 360.362 462.853 360.241C462.631 359.689 462.45 359.127 462.289 358.554C462.077 357.791 461.16 357.279 460.405 357.54C459.609 357.811 459.165 358.605 459.387 359.418C460.082 361.989 461.402 364.319 463.165 366.307C463.689 366.9 464.807 366.809 465.301 366.237C465.875 365.564 465.785 364.741 465.23 364.108V364.088Z" fill="#191F28"/>
<path d="M463.014 360.643C463.014 360.643 463.024 360.673 463.034 360.683C463.034 360.683 463.014 360.633 462.994 360.583C462.994 360.583 462.994 360.603 463.004 360.613C463.004 360.623 463.004 360.623 463.014 360.633V360.643Z" fill="#191F28"/>
<path d="M464.979 363.797C464.979 363.797 464.928 363.736 464.908 363.716C464.928 363.736 464.938 363.756 464.948 363.777C464.948 363.777 464.958 363.797 464.969 363.807L464.979 363.797Z" fill="#191F28"/>
<path d="M402.001 207.662C399.411 204.93 394.757 206.577 391.895 207.933C390.072 208.797 388.41 209.962 386.939 211.338C385.417 212.764 384.017 214.501 383.634 216.61C383.574 216.931 383.614 217.223 383.725 217.464C383.725 217.705 383.805 217.956 383.977 218.207C386.052 221.31 390.092 222.405 393.588 222.887C395.633 223.168 397.809 223.319 399.855 223.007C402.071 222.676 402.655 220.728 403.028 218.809C403.421 216.791 403.592 214.712 403.542 212.663C403.502 210.896 403.28 209.018 402.001 207.672V207.662ZM400.348 216.439C400.248 217.213 400.117 217.986 399.955 218.759C399.885 219.081 399.834 219.834 399.512 220.025C399.28 220.155 398.817 220.095 398.545 220.105C398.132 220.125 397.709 220.135 397.296 220.135C396.49 220.135 395.674 220.105 394.878 220.014C392.228 219.723 388.45 219.121 386.717 216.811C387.392 214.461 389.81 212.603 391.795 211.398C392.984 210.675 394.233 210.112 395.563 209.711C396.651 209.379 398.011 208.978 399.149 209.339C400.207 209.68 400.409 210.765 400.479 211.749C400.6 213.296 400.55 214.883 400.358 216.419L400.348 216.439Z" fill="#191F28"/>
<path d="M413.053 217.805C412.509 220.587 411.501 223.258 409.93 225.628C409.083 226.904 408.378 227.426 406.897 226.783C405.456 226.161 404.066 225.407 402.655 224.714C401.799 224.293 400.681 224.745 400.479 225.719C400.167 227.225 399.764 228.712 399.17 230.128C398.646 231.383 398.162 232.719 396.812 233.241C393.981 234.335 390.666 233.904 387.765 233.371C385.861 233.02 385.176 235.962 387.1 236.314C388.732 236.615 390.475 236.856 392.208 236.906C392.48 239.628 392.863 242.42 394.374 244.76C395.865 247.05 398.223 248.526 400.993 248.546C407.048 248.596 410.564 242.832 412.146 237.75C413.194 234.386 413.536 230.81 413.204 227.306C413.174 227.024 413.083 226.793 412.962 226.603C414.514 224.152 415.481 221.159 416.005 218.468C416.377 216.57 413.425 215.897 413.053 217.805ZM404.811 244.207C402.756 245.714 399.824 246.146 397.86 244.268C395.835 242.35 395.482 239.387 395.23 236.736C396.298 236.575 397.346 236.304 398.333 235.852C398.505 235.993 398.706 236.103 398.948 236.173C399.149 236.234 399.361 236.304 399.562 236.364C399.623 236.384 399.703 236.414 399.744 236.434C399.855 236.485 399.965 236.525 400.086 236.575C400.53 236.776 400.973 236.997 401.386 237.248C401.598 237.368 401.799 237.509 402.001 237.64C402.021 237.65 402.021 237.65 402.031 237.66C402.041 237.66 402.051 237.67 402.061 237.69C402.162 237.76 402.252 237.84 402.353 237.911C402.736 238.212 403.109 238.533 403.451 238.885C403.623 239.056 403.794 239.236 403.955 239.417C404.036 239.507 404.116 239.598 404.197 239.698C404.197 239.708 404.207 239.708 404.217 239.718C404.217 239.728 404.237 239.738 404.247 239.769C404.539 240.16 404.822 240.552 405.083 240.974C405.214 241.185 405.335 241.396 405.446 241.606C405.497 241.697 405.537 241.787 405.587 241.878C405.597 241.898 405.648 242.008 405.678 242.078C405.708 242.149 405.758 242.279 405.769 242.299C405.819 242.41 405.859 242.53 405.9 242.641C405.95 242.781 406 242.932 406.041 243.083C405.658 243.494 405.265 243.886 404.811 244.218V244.207ZM409.204 237.087C408.892 238.091 408.509 239.126 408.025 240.11C406.474 237.188 403.885 234.878 400.781 233.663C401.124 233.13 401.406 232.548 401.678 231.945C402.202 230.75 402.625 229.525 402.978 228.28C405.366 229.545 408.005 230.831 410.302 229.515C410.332 232.076 409.98 234.617 409.214 237.087H409.204Z" fill="#191F28"/>
<path d="M388.007 192.789C387.201 192.417 386.435 192.718 385.971 193.431C384.118 196.213 382.889 199.437 382.415 202.741C382.304 203.524 382.707 204.388 383.553 204.539C384.309 204.669 385.236 204.237 385.357 203.404C385.81 200.21 386.838 197.539 388.641 194.827C389.085 194.164 388.692 193.11 387.996 192.799L388.007 192.789Z" fill="#191F28"/>
<path d="M394.505 198.764C394.585 198.413 394.525 197.951 394.313 197.639C394.092 197.308 393.759 197.027 393.356 196.956C393.004 196.896 392.53 196.906 392.228 197.147C391.402 197.82 390.606 198.523 389.891 199.306C389.165 200.09 388.53 200.933 387.926 201.807C387.724 202.098 387.724 202.62 387.815 202.942C387.926 203.303 388.218 203.685 388.561 203.846C388.913 204.006 389.326 204.087 389.699 203.956C389.82 203.906 389.941 203.846 390.052 203.795C390.283 203.645 390.465 203.454 390.596 203.213C390.596 203.213 390.596 203.203 390.606 203.193C391.593 201.827 392.752 200.592 394.062 199.517C393.981 199.588 393.89 199.658 393.81 199.728C394.132 199.457 394.394 199.206 394.485 198.784L394.505 198.764Z" fill="#191F28"/>
<path d="M366.779 211.448C365.751 209.399 363.706 207.662 361.379 207.381C358.951 207.089 356.512 208.164 355.424 210.424C354.246 212.894 354.86 215.626 356.019 217.976C356.704 219.352 357.742 220.487 359.041 221.149C359.565 221.491 360.139 221.762 360.764 221.913C363.323 222.525 365.872 220.768 366.99 218.548C368.119 216.289 367.887 213.667 366.769 211.448H366.779Z" fill="#191F28"/>
<path d="M415.078 185.056C414.05 183.007 412.005 181.27 409.678 180.988C407.25 180.697 404.811 181.772 403.723 184.031C402.545 186.502 403.159 189.233 404.318 191.583C405.003 192.959 406.041 194.094 407.34 194.757C407.864 195.098 408.438 195.37 409.063 195.52C411.622 196.133 414.171 194.375 415.289 192.156C416.418 189.896 416.186 187.275 415.068 185.056H415.078Z" fill="#191F28"/>
<path d="M547.804 536.12C540.006 540.419 530.596 539.776 523.161 535.066C519.514 532.756 516.008 530.095 511.555 529.683C510.729 529.602 509.913 529.602 509.107 529.663C510.447 528.538 511.756 527.333 512.925 526.037C513.993 524.852 514.748 523.266 513.912 521.729C512.27 518.686 507.212 518.415 504.2 518.565C500.452 518.766 496.664 519.64 493.088 520.765C494.669 519.279 496.18 517.722 497.601 516.085C498.84 514.659 500.503 512.781 499.384 510.792C497.44 507.348 491.677 510.32 489.168 511.385C485.4 512.972 481.794 514.94 478.449 517.29C474.54 520.032 470.973 523.255 467.87 526.871C466.611 528.337 468.807 530.406 470.076 528.93C474.63 523.637 480.121 519.268 486.327 516.035C487.849 515.241 489.4 514.528 490.992 513.886C492.483 513.283 494.155 512.5 495.757 512.279C496.009 512.249 496.322 512.198 496.573 512.279C496.966 512.389 496.765 512.249 496.614 512.52C496.15 513.313 495.445 514.006 494.83 514.689C493.591 516.085 492.281 517.421 490.921 518.696C487.879 521.558 484.534 524.079 480.988 526.278C479.335 527.303 480.907 529.854 482.569 528.849C486.136 526.69 489.924 524.953 493.893 523.687C497.702 522.482 501.812 521.478 505.842 521.568C506.789 521.588 507.736 521.699 508.653 521.93C509.278 522.08 510.759 522.352 511.122 522.984C511.615 523.838 508.502 526.218 507.827 526.811C504.835 529.482 501.45 531.691 497.863 533.459C496.13 534.373 497.732 536.873 499.445 536.03C503.666 533.81 508.562 531.701 513.398 533.087C517.549 534.272 520.783 537.496 524.602 539.364C532.38 543.18 541.82 542.859 549.386 538.691C551.089 537.747 549.497 535.186 547.804 536.12Z" fill="#191F28"/>
<path d="M177.492 540.258C170.54 531.199 160.788 525.113 151.156 519.248C149.494 518.234 148.104 520.905 149.756 521.92C158.884 527.483 168.314 533.238 174.913 541.835C176.082 543.361 178.671 541.794 177.492 540.258Z" fill="#191F28"/>
<path d="M169.18 540.268C162.672 535.739 155.609 532.133 148.144 529.442C147.368 529.161 146.512 529.864 146.341 530.577C146.129 531.45 146.723 532.103 147.479 532.374C154.683 534.975 161.503 538.561 167.78 542.929C168.455 543.401 169.472 542.939 169.815 542.296C170.238 541.503 169.845 540.73 169.17 540.268H169.18Z" fill="#191F28"/>
<path d="M156.113 540.72C152.305 537.998 148.255 535.116 143.933 533.278C140.074 531.631 135.691 532.314 134.14 536.612C133.948 537.155 133.616 537.928 133.465 538.601C133.092 538.289 132.719 537.988 132.357 537.677C130.634 536.261 128.84 534.895 126.745 534.081C122.665 532.505 118.232 532.866 114.03 533.76C108.761 534.885 103.502 537.114 98.0114 536.582C96.0972 536.391 95.4121 539.334 97.3465 539.525C101.951 539.977 106.343 538.872 110.756 537.687C114.857 536.582 119.229 535.417 123.491 536.261C125.667 536.693 127.541 537.707 129.274 539.063C130.08 539.695 130.855 540.358 131.641 541.001C132.377 541.604 133.193 542.377 134.22 542.266C136.165 542.066 136.336 539.806 136.749 538.33C137.283 536.401 138.402 535.176 140.558 535.397C142.986 535.658 145.343 537.355 147.388 538.571C149.675 539.926 151.902 541.373 154.058 542.919C154.723 543.401 155.579 543.492 156.194 542.849C156.698 542.317 156.778 541.192 156.123 540.72H156.113Z" fill="#191F28"/>
<path d="M191.694 80.2285C191.311 80.4243 190.892 80.4888 190.434 80.4219C190.025 80.3306 189.734 80.1182 189.562 79.7847C189.317 79.3083 190.589 78.0847 193.379 76.1139C196.192 74.0709 198.65 72.511 200.753 71.434C201.135 71.2382 201.555 71.1737 202.013 71.2406C202.47 71.3075 202.785 71.5076 202.956 71.8411C203.202 72.3176 201.942 73.565 199.177 75.5834C196.387 77.5542 193.892 79.1026 191.694 80.2285Z" fill="black"/>
<path d="M255.203 81.8884C254.749 82.0561 254.382 81.9922 254.1 81.6966C253.937 81.414 252.547 79.5287 249.93 76.0408L243.864 67.8304C237.54 59.315 233.555 54.0767 231.907 52.1153L230.977 51.0027C230.964 51.1217 230.919 51.3096 230.843 51.5664C230.817 51.8046 230.737 52.2055 230.603 52.7693C230.41 54.0976 230.224 55.1376 230.046 55.8893L229.633 58.0131L239.618 84.827C239.936 85.6806 240.076 86.286 240.037 86.6432C240.017 87.0507 239.755 87.3476 239.251 87.534C238.747 87.7204 238.329 87.6751 237.997 87.3982C237.715 87.1026 237.405 86.5029 237.069 85.599L228.598 62.8524C227.495 59.8899 225.775 55.0414 223.439 48.3071L218.205 33.7898C217.85 32.8357 217.573 31.9384 217.374 31.0977C217.301 30.4392 217.466 30.0354 217.869 29.8863C218.624 29.6067 219.143 29.6147 219.425 29.9102C219.758 30.1872 220.195 31.0537 220.737 32.5099L225.242 45.0689L228.485 54.2386L228.561 54.2106C228.732 51.7475 228.914 48.0808 229.107 43.2105L229.294 35.1712C229.516 27.1477 230.004 22.9962 230.76 22.7166C231.113 22.5861 231.452 22.5747 231.779 22.6824C232.105 22.79 232.334 23.0196 232.465 23.3711C232.669 24.381 232.64 25.5344 232.378 26.8312L232.127 28.4666C232.019 30.792 231.882 34.2708 231.715 38.903C231.514 44.5192 231.385 47.4809 231.327 47.7879C231.408 48.158 231.545 48.45 231.739 48.6637C233.701 50.8518 236.012 53.5959 238.674 56.8959C241.336 60.1959 243.584 63.0776 245.418 65.5411C247.397 68.237 249.394 70.9831 251.409 73.7795C253.475 76.5572 254.937 78.5587 255.795 79.784C256.008 80.048 256.124 80.2051 256.142 80.2553C256.273 80.6068 256.225 80.9389 255.997 81.2516C255.82 81.5456 255.555 81.7579 255.203 81.8884Z" fill="black"/>
<path d="M286.626 72.3284C285.422 72.6046 284.236 72.6018 283.068 72.32C281.9 72.0382 280.88 71.5578 280.006 70.8787C279.145 70.2519 278.32 69.4243 277.531 68.396C276.742 67.3678 276.058 66.3155 275.479 65.2392C274.546 63.5846 273.641 61.4562 272.765 58.8542L272.048 56.463C271.927 55.941 271.823 55.6078 271.734 55.4632C271.698 55.3066 271.674 55.2022 271.662 55.15C270.81 52.6523 269.168 47.093 266.737 38.4721C264.359 29.8391 262.61 23.0954 261.489 18.2411L261.218 17.0666C260.905 15.7095 261.141 14.9408 261.926 14.7607C263.026 14.5085 263.72 15.0088 264.01 16.2615L264.136 16.8096L264.202 17.454C265.6 23.5089 267.439 30.6441 269.721 38.8595C271.991 47.0227 273.731 52.8891 274.941 56.4589C275.733 58.6956 276.72 60.9424 277.903 63.1994C278.695 64.7215 279.454 65.9765 280.178 66.9646C280.955 67.9407 281.82 68.704 282.774 69.2546C283.909 69.8736 284.922 70.0811 285.812 69.8769C286.703 69.6728 287.44 69.2839 288.024 68.7102C288.661 68.1245 289.084 67.4503 289.294 66.6876C289.528 66.0294 289.648 65.2326 289.652 64.2972C289.697 63.2976 289.65 62.3742 289.509 61.527C289.441 60.993 289.268 60.1258 288.991 58.9252L286.931 49.9994C286.016 46.0324 284.785 41.1759 283.238 35.43L280.611 25.4801L278.917 18.8609C278.086 15.9738 277.495 13.7734 277.146 12.2597C277.013 11.6855 277.068 11.2058 277.31 10.8206C277.552 10.4354 277.882 10.1947 278.301 10.0986C278.72 10.0026 279.097 10.0811 279.431 10.3342C279.817 10.5754 280.077 10.983 280.209 11.5572L281.582 17.5077C282.185 20.1176 282.753 22.4605 283.287 24.5364L284.914 31.5831C286.082 36.6463 287.159 41.0711 288.143 44.8575C289.087 48.7081 290.113 53.0346 291.221 57.8368C291.522 59.1417 291.735 60.3021 291.859 61.3178C291.983 62.3336 292.015 63.4256 291.954 64.5938C291.929 65.9186 291.731 67.0907 291.359 68.1102C291.028 69.0654 290.484 69.9322 289.727 70.7106C288.864 71.5129 287.831 72.0522 286.626 72.3284Z" fill="black"/>
<path d="M337.629 63.4595C337.147 63.5052 336.809 63.3491 336.612 62.9911C336.528 62.6762 335.673 60.4977 334.045 56.4555L330.305 46.9644C326.395 37.1128 323.898 31.028 322.813 28.7098L322.201 27.3958C322.158 27.5075 322.066 27.6776 321.926 27.9062C321.84 28.1296 321.659 28.4965 321.384 29.0068C320.854 30.2408 320.405 31.198 320.039 31.8785L319.091 33.8246L321.811 62.2976C321.897 63.2041 321.876 63.8248 321.746 64.16C321.621 64.5485 321.291 64.7681 320.756 64.8189C320.221 64.8696 319.829 64.7186 319.579 64.3656C319.383 64.0076 319.239 63.3487 319.148 62.389L316.841 38.2349C316.54 35.089 316.131 29.9627 315.614 22.8559L314.308 7.48441C314.211 6.47133 314.176 5.53315 314.201 4.66987C314.3 4.0148 314.564 3.66695 314.992 3.62633C315.794 3.55018 316.294 3.69111 316.49 4.04911C316.739 4.40205 316.938 5.35166 317.086 6.89794L318.194 20.1899L318.957 29.8827L319.038 29.8751C319.84 27.5392 320.963 24.043 322.408 19.3864L324.666 11.6664C326.954 3.97062 328.499 0.0846343 329.301 0.00847913C329.675 -0.0270599 330.006 0.0491186 330.294 0.237015C330.582 0.424911 330.744 0.705479 330.779 1.07872C330.716 2.10703 330.39 3.21405 329.801 4.39978L329.136 5.91558C328.431 8.1347 327.399 11.4608 326.041 15.894C324.396 21.2691 323.506 24.0976 323.371 24.3794C323.353 24.7578 323.41 25.0751 323.542 25.3316C324.872 27.9494 326.396 31.1943 328.116 35.0664C329.835 38.9385 331.263 42.3002 332.399 45.1516C333.613 48.2645 334.834 51.4307 336.059 54.6503C337.337 57.8647 338.233 60.174 338.745 61.5781C338.882 61.8879 338.953 62.0694 338.958 62.1228C338.994 62.496 338.862 62.8045 338.561 63.0482C338.314 63.2869 338.003 63.424 337.629 63.4595Z" fill="black"/>
<path d="M365.406 64.5415C364.446 64.4319 363.704 64.2935 363.183 64.1262C362.708 64.0182 362.193 63.7976 361.636 63.4646C361.032 63.0723 360.604 62.5651 360.35 61.9433C360.424 61.3047 360.754 61.0189 361.341 61.0859C361.928 61.1528 362.654 61.4243 363.519 61.9003C364.324 62.4234 365.021 62.7184 365.608 62.7854C366.782 62.9193 367.905 62.5622 368.976 61.7139C370.1 60.8717 371.018 59.7094 371.729 58.2271C373.145 55.3156 373.987 52.6892 374.255 50.3477C374.555 47.7402 374.483 45.0635 374.041 42.3176C373.599 39.5716 372.899 36.958 371.94 34.4765C371.74 33.8607 371.387 32.9309 370.881 31.6872C369.851 28.8743 369.075 26.6832 368.552 25.1141C368.029 23.545 367.605 21.8253 367.278 19.9552C366.806 17.4753 366.728 14.8518 367.046 12.0846C367.247 10.3286 367.707 8.68275 368.424 7.1472C369.2 5.56452 370.27 4.25783 371.632 3.22713C373.107 2.1554 374.672 1.71389 376.327 1.9026C376.967 1.97566 377.711 2.33 378.557 2.96563C379.41 3.54805 379.809 4.07872 379.754 4.55765C379.705 4.98336 379.52 5.17795 379.2 5.14143C378.88 5.1049 378.468 4.92317 377.965 4.59622C377.515 4.27536 377.076 4.09058 376.649 4.04188C375.421 3.90186 374.275 4.22939 373.21 5.02445C372.199 5.82561 371.403 6.86701 370.824 8.14867C370.322 9.22355 369.994 10.4262 369.842 11.7565C369.604 13.8319 369.623 16.0175 369.901 18.3134C370.184 20.556 370.67 22.687 371.357 24.7062L373.491 30.8527L374.1 32.6203C374.958 35.0364 375.595 37.0229 376.012 38.5798C376.481 40.1429 376.823 41.88 377.036 43.7912C377.336 46.3592 377.355 48.7874 377.092 51.0756C376.738 54.162 375.577 57.2103 373.609 60.2206C372.631 61.6725 371.42 62.8013 369.976 63.6069C368.531 64.4126 367.008 64.7241 365.406 64.5415Z" fill="black"/>
<path d="M407.336 68.54C406.093 68.1945 404.503 67.7957 402.568 67.3434C402.201 67.2579 401.892 67.0481 401.64 66.714C401.439 66.3921 401.376 66.0748 401.449 65.7619C401.609 65.0839 402.133 64.8489 403.023 65.0567L406.083 65.7717C407.493 59.7746 409.088 52.1704 410.867 42.9589C412.375 35.6092 413.514 29.8241 414.286 25.6033L415.302 21.6323L416.516 16.4696C417.129 13.8622 417.469 12.1813 417.536 11.4267L414.79 10.7851C414.267 10.6629 414.091 10.2367 414.263 9.50663C414.373 9.03729 414.668 8.72115 415.148 8.55818C415.551 8.48729 416.537 8.63519 418.107 9.00186L420.304 9.5152C421.076 9.75068 422.064 10.009 423.267 10.2901C423.686 10.3879 424.001 10.5716 424.214 10.8413C424.439 11.0589 424.508 11.3502 424.422 11.7152C424.349 12.0281 424.203 12.2966 423.985 12.5207C423.766 12.7447 423.5 12.8201 423.186 12.7468C422.82 12.6612 422.513 12.5618 422.263 12.4485L420.537 12.0452C420.014 11.923 419.688 11.9018 419.558 11.9816L419.328 12.2579C418.371 16.3254 416.78 24.6182 414.554 37.1362C412.497 48.7033 410.88 56.99 409.703 61.9962L409.188 64.1864C408.976 64.8521 408.784 65.55 408.613 66.2801L411.438 66.9401C412.641 67.2212 413.157 67.7268 412.985 68.4569C412.911 68.7698 412.707 69.0521 412.372 69.3039C412.101 69.5158 411.835 69.5911 411.574 69.53L407.336 68.54Z" fill="black"/>
<path d="M453.567 83.5727C453.112 83.4072 452.874 83.1208 452.852 82.7135C452.912 82.3933 453.081 80.0598 453.359 75.713L454.084 65.5415C454.812 54.972 455.187 48.4082 455.21 45.8502L455.226 44.4019C455.139 44.4841 454.982 44.5983 454.757 44.7444C454.582 44.9088 454.261 45.1623 453.792 45.5048C452.78 46.3909 451.962 47.0623 451.337 47.519L449.641 48.8685L439.793 75.7329C439.48 76.5882 439.192 77.1391 438.93 77.3858C438.649 77.6828 438.257 77.7394 437.752 77.5556C437.247 77.3717 436.959 77.067 436.886 76.6413C436.863 76.234 437.018 75.5776 437.35 74.672L445.704 51.8826C446.793 48.9144 448.639 44.1124 451.243 37.4767L456.706 23.0432C457.056 22.0873 457.429 21.2253 457.825 20.4572C458.198 19.9086 458.586 19.7079 458.99 19.8549C459.747 20.1307 460.137 20.4722 460.159 20.8795C460.232 21.3052 460.001 22.2475 459.466 23.7064L454.722 36.1779L451.224 45.2536L451.299 45.2812C453.033 43.5176 455.557 40.8445 458.873 37.2621L464.247 31.2644C469.636 25.3011 472.71 22.4573 473.467 22.733C473.82 22.8617 474.086 23.0726 474.264 23.3658C474.443 23.6589 474.468 23.9816 474.339 24.3337C473.837 25.2344 473.064 26.0935 472.021 26.911L470.766 27.9936C469.17 29.6934 466.802 32.2523 463.661 35.6702C459.854 39.8148 457.828 41.9852 457.584 42.1816C457.405 42.5154 457.319 42.8264 457.328 43.1147C457.397 46.0481 457.371 49.6311 457.249 53.8638C457.128 58.0965 456.964 61.7433 456.757 64.8044C456.508 68.1354 456.241 71.5166 455.956 74.9482C455.721 78.3982 455.531 80.8667 455.386 82.3537C455.377 82.6923 455.363 82.8868 455.344 82.9371C455.215 83.2893 454.962 83.5108 454.586 83.6017C454.26 83.711 453.92 83.7014 453.567 83.5727Z" fill="black"/>
<path d="M486.365 66.4354C485.982 66.2422 485.682 65.9416 485.468 65.5335C485.301 65.1496 485.302 64.7903 485.472 64.4556C485.714 63.9775 487.455 64.2839 490.695 65.3747C494.007 66.4419 496.718 67.5067 498.828 68.569C499.212 68.7622 499.511 69.0628 499.726 69.4709C499.94 69.879 499.963 70.2503 499.793 70.585C499.551 71.0631 497.798 70.7806 494.534 69.7376C491.295 68.6468 488.572 67.546 486.365 66.4354Z" fill="black"/>
<path d="M627.046 517.413C630.151 511.964 640.301 514.107 657.494 523.843L659.947 525.232C672.982 532.612 678.544 537.979 676.634 541.333C676.501 541.565 676.245 541.852 675.866 542.192C674.503 543.391 673.34 544.673 672.377 546.037C671.686 546.816 670.27 547.185 668.131 547.144C665.892 547.17 663.261 546.635 660.239 545.54C657.191 544.491 654.218 543.147 651.321 541.507L651.05 541.169C649.509 540.296 648.117 539.539 646.876 538.897L642.631 536.586C640.248 535.237 638.152 533.927 636.343 532.656C633.605 530.737 631.371 528.856 629.64 527.013C628.618 525.88 627.845 524.795 627.323 523.76C626.773 522.772 626.444 521.723 626.335 520.614C626.199 519.551 626.436 518.484 627.046 517.413ZM629.238 518.285C628.203 520.101 628.718 522.179 630.784 524.519C632.896 526.885 635.254 528.929 637.857 530.649C640.554 532.423 642.744 533.786 644.426 534.738C646.295 535.796 649.131 537.217 652.934 539.002C657.132 541.07 659.955 542.515 661.403 543.335L662.123 543.373L662.394 543.711C664.45 544.875 666.557 545.298 668.715 544.98C670.847 544.709 672.378 543.758 673.307 542.128C674.527 539.986 674.229 538.123 672.412 536.54C671.765 536.05 670.813 535.388 669.558 534.554C666.101 532.597 663.821 531.121 662.719 530.127C662.018 529.731 660.96 529.039 659.544 528.053L656.33 526.048C655.302 525.466 654.378 524.973 653.557 524.57L650.714 523.053C648.518 521.81 645.889 520.567 642.827 519.326C640.565 518.415 638.604 517.736 636.943 517.288C635.282 516.841 633.739 516.675 632.313 516.792C630.794 516.856 629.769 517.353 629.238 518.285Z" fill="black"/>
<path d="M608.099 553.357L610.533 555.076C611.253 555.547 612.043 556.104 612.903 556.747C613.333 557.068 613.682 557.362 613.951 557.63L615.063 558.562C615.493 558.883 616.074 559.183 616.805 559.462C619.685 561.614 625.199 565.4 633.346 570.819C641.234 576.045 646.549 579.649 649.29 581.63C651.288 578.973 652.69 577.243 653.496 576.439C654.356 575.743 655.022 575.571 655.495 575.925C655.807 576.492 655.737 577.076 655.286 577.676C654.319 578.962 652.831 580.762 650.822 583.076C648.931 585.144 647.421 586.928 646.293 588.428L645.278 589.778L644.327 591.176C643.747 591.947 643.177 592.124 642.618 591.706C642.36 591.513 642.258 591.203 642.312 590.774C642.376 590.421 642.553 590.051 642.843 589.665C643.488 588.808 644.208 587.941 645.003 587.062L647.211 584.394C647.34 584.223 647.34 584.089 647.211 583.993C647.114 583.853 646.722 583.527 646.034 583.013C641.864 579.896 635.351 575.43 626.494 569.615C617.369 563.532 610.894 559.061 607.068 556.201C606.767 555.977 606.632 555.575 606.664 554.996C606.664 554.461 606.793 554.021 607.051 553.679L608.099 553.357Z" fill="black"/>
<path d="M583.932 580.515C584.599 579.817 585.379 579.817 586.27 580.515L587.028 581.236C587.186 581.459 587.401 581.7 587.673 581.959L588.129 581.948C588.649 583.034 589.299 583.946 590.077 584.685C590.972 585.535 592.311 586.696 594.095 588.168L598.058 591.709C600.004 593.556 602.866 596.385 606.645 600.196C609.96 603.639 612.823 606.505 615.235 608.796L618.848 612.004C619.972 612.924 621.177 613.994 622.461 615.213C623.044 615.767 623.323 616.291 623.297 616.784C623.31 617.314 623.038 617.87 622.483 618.451C622.112 618.839 621.699 619.039 621.243 619.05C621.13 619.09 620.515 619.579 619.397 620.515C618.354 621.374 617.382 622.041 616.482 622.518C615.544 623.033 614.9 623.124 614.55 622.792C614.161 622.422 614.124 621.685 614.439 620.578C617.291 619.07 619.161 617.85 620.051 616.919L619.979 616.296C619.591 616.002 618.736 615.227 617.414 613.971C615.741 612.383 614.28 610.922 613.031 609.588C611.707 608.256 610.208 606.796 608.535 605.207C607.445 604.173 606.641 603.927 606.122 604.47L605.291 605.456C605.034 605.804 604.738 606.152 604.405 606.501C602.959 608.013 601.886 608.437 601.186 607.772C600.758 607.366 600.481 606.918 600.355 606.428C600.268 605.976 600.41 605.556 600.781 605.168C601.336 604.586 601.918 604.288 602.526 604.273L604.597 602.689L604.875 602.398L604.861 601.83L604.686 601.664C603.95 601.113 602.376 599.693 599.964 597.402C598.447 595.961 597.084 594.631 595.876 593.41L591.788 589.417C590.271 587.976 588.659 586.557 586.953 585.159C586.021 584.348 585.233 583.969 584.588 584.022C583.982 584.113 583.234 584.623 582.345 585.554L581.403 586.657C581.108 587.043 580.757 587.449 580.349 587.876C579.274 589 578.484 589.323 577.978 588.842C577.278 588.177 577.743 586.992 579.374 585.285L583.932 580.515Z" fill="black"/>
<path d="M561.316 606.048C561.577 605.351 561.873 604.867 562.206 604.595C562.705 604.188 563.221 604.182 563.754 604.578L563.907 604.765C564.146 605.055 564.183 605.439 564.021 605.918C563.893 606.438 563.8 606.79 563.743 606.975C563.498 608.283 563.559 609.583 563.926 610.875C564.251 612.202 564.849 613.86 565.719 615.849C567.508 619.719 570.088 623.706 573.457 627.809C574.308 628.845 575.626 630.365 577.411 632.37C579.646 634.838 582.183 637.716 585.024 641.005C587.864 644.295 589.637 646.412 590.344 647.358C590.386 647.324 590.431 647.252 590.48 647.143C590.564 647.075 590.668 646.99 590.792 646.889C591.707 646.142 592.335 645.976 592.675 646.391C593.049 646.846 593.006 647.47 592.545 648.262C592.126 649.019 591.504 649.7 590.68 650.303C589.89 650.948 589.37 651.372 589.121 651.575L586.127 654.018C584.713 655.171 583.94 655.837 583.808 656.014C582.837 656.945 582.003 657.452 581.307 657.535C580.612 657.618 579.924 657.245 579.243 656.416C578.937 656.043 578.719 655.736 578.591 655.495C577.77 654.158 576.713 652.701 575.419 651.126L571.732 646.763C569.656 644.235 568.128 642.332 567.149 641.055L562.514 635.285L560.983 633.42C559.008 631.016 555.889 627.47 551.623 622.783C551.112 622.162 550.492 621.491 549.762 620.771C549.067 620.093 548.562 619.605 548.248 619.308L548.044 619.059C547.703 618.644 547.548 618.286 547.578 617.985C547.567 617.717 547.752 617.393 548.134 617.013L548.259 616.911C548.633 616.605 549.03 616.455 549.449 616.458C549.827 616.496 550.187 616.722 550.527 617.136L553.681 621.104C554.899 622.671 556.767 624.988 559.286 628.055L572.9 644.253L576.003 648.158C577.364 649.816 578.737 651.361 580.121 652.793C580.325 653.041 580.859 653.437 581.721 653.979L588.519 648.432L584.236 643.725L581.088 640.271C576.088 634.522 572.38 630.176 569.964 627.233C566.371 622.689 563.629 618.039 561.737 613.284C560.708 610.593 560.568 608.182 561.316 606.048Z" fill="black"/>
<path d="M522.674 635.216C523.586 634.65 524.375 634.445 525.041 634.599C525.662 634.782 526.284 635.374 526.909 636.374C528.516 638.847 530.881 642.585 534.003 647.587L537.486 653.47C538.661 655.454 540.12 657.893 541.863 660.786C543.606 663.679 545.67 667.036 548.054 670.856C548.934 672.265 550.334 674.204 552.255 676.672L552.468 677.013C552.865 677.65 553.043 678.138 553.003 678.479C552.991 678.865 552.757 679.199 552.3 679.482C551.707 679.85 551.137 679.951 550.591 679.786C550.027 679.694 549.584 679.338 549.26 678.719C545.775 672.932 543.197 668.601 541.529 665.725C540.388 663.593 539.221 661.573 538.029 659.663L536.318 660.724C533.798 662.161 531.312 662.284 528.859 661.092C525.747 659.553 523.282 657.329 521.465 654.418C519.989 652.053 519.042 649.675 518.626 647.284C518.192 644.967 518.305 642.563 518.965 640.072C519.43 638.08 520.666 636.461 522.674 635.216ZM524.24 638.03C523.254 638.579 522.429 639.437 521.766 640.605C521.131 641.819 520.818 642.991 520.828 644.121C520.907 647.289 521.741 650.146 523.331 652.693C525.034 655.422 527.01 657.319 529.258 658.385C531.488 659.525 533.958 659.223 536.667 657.48C535.526 655.348 534.331 653.282 533.082 651.281C531.833 649.281 529.868 646.336 527.187 642.447C526.563 641.447 525.58 639.974 524.24 638.03Z" fill="black"/>
<path d="M439.111 667.987C439.927 667.884 440.395 668.265 440.515 669.128L440.799 671.237C440.919 672.439 441.133 673.497 441.441 674.411C443.224 673.985 444.982 673.483 446.714 672.904C448.905 672.173 451.24 671.28 453.719 670.226C456.13 669.138 458.491 668.068 460.8 667.014C461.071 666.472 461.096 665.87 460.874 665.21C460.857 665.159 460.618 664.702 460.158 663.839C459.919 663.467 459.775 663.205 459.723 663.052C459.57 662.595 459.748 662.197 460.257 661.857L460.537 661.679C460.944 661.543 461.369 661.542 461.811 661.677C462.253 661.812 462.559 662.049 462.73 662.387C463.651 664.452 464.29 666.018 464.649 667.084C464.802 667.542 464.735 667.931 464.447 668.253C464.124 668.643 463.751 668.881 463.326 668.966C462.239 669.273 461.56 669.782 461.29 670.494C461.019 671.206 460.884 672.154 460.886 673.34C461.13 677.439 461.449 680.495 461.843 682.51C462.853 687.201 463.7 690.815 464.383 693.355C465.084 695.945 465.972 698.925 467.048 702.294C467.338 703.157 467.807 704.639 468.456 706.738C469.105 708.837 469.763 711.047 470.429 713.366C470.549 713.891 470.83 714.644 471.274 715.626C471.649 716.404 471.904 716.997 472.041 717.403C472.365 718.199 472.426 718.8 472.222 719.207C471.968 719.631 471.433 719.979 470.618 720.251L462.059 723.364C461.448 723.568 460.904 723.552 460.428 723.315C459.901 723.096 459.56 722.673 459.406 722.047L454.896 706.352C453.563 701.375 452.47 697.616 451.617 695.077C450.729 692.436 449.611 689.448 448.264 686.113C447.274 683.168 446.062 679.816 444.629 676.058C442.983 677.06 441.701 677.714 440.784 678.02C440.172 678.224 439.637 678.234 439.178 678.048C438.668 677.88 438.336 677.567 438.182 677.109C438.063 676.754 438.062 676.415 438.181 676.093C438.57 674.721 438.618 673.349 438.327 671.977C437.968 670.572 437.772 669.734 437.737 669.463C437.668 668.582 438.126 668.09 439.111 667.987ZM457.977 671.261C453.511 672.979 450.106 674.314 447.763 675.266C450.683 684.628 452.92 691.874 454.474 697.003L456.729 704.469C457.753 707.855 458.53 710.335 459.059 711.91C459.862 714.297 460.57 716.32 461.184 717.979C461.423 718.69 461.687 719.138 461.976 719.324C462.265 719.51 462.724 719.526 463.353 719.373C463.93 719.236 464.805 718.973 465.977 718.581L468.652 717.688C467.523 713.32 465.764 706.988 463.372 698.692C461.066 690.65 459.767 685.943 459.476 684.572C458.791 681.355 458.363 678.899 458.19 677.206C457.967 675.53 457.896 673.548 457.977 671.261Z" fill="black"/>
<path d="M423.87 681.015C424.435 680.528 424.928 680.245 425.351 680.166C425.985 680.048 426.44 680.29 426.717 680.892L426.762 681.129C426.831 681.498 426.679 681.853 426.306 682.195C425.942 682.59 425.691 682.855 425.553 682.989C424.707 684.019 424.134 685.188 423.833 686.498C423.48 687.817 423.205 689.558 423.01 691.719C422.715 695.97 423.056 700.702 424.035 705.914C424.282 707.23 424.705 709.194 425.305 711.807C426.076 715.042 426.915 718.781 427.821 723.026C428.727 727.271 429.263 729.977 429.427 731.145C429.48 731.135 429.555 731.094 429.65 731.022C429.756 731.002 429.888 730.978 430.046 730.948C431.208 730.731 431.839 730.886 431.938 731.413C432.046 731.992 431.708 732.518 430.922 732.992C430.189 733.455 429.316 733.754 428.303 733.889C427.299 734.076 426.639 734.199 426.322 734.258L422.519 734.968C420.724 735.303 419.725 735.516 419.524 735.608C418.223 735.96 417.248 736.006 416.597 735.745C415.947 735.485 415.523 734.829 415.326 733.776C415.237 733.302 415.194 732.928 415.197 732.655C415.122 731.089 414.896 729.306 414.521 727.305L413.389 721.713C412.786 718.502 412.363 716.101 412.119 714.512L410.834 707.232L410.39 704.863C409.816 701.809 408.788 697.206 407.305 691.052C407.157 690.263 406.936 689.378 406.642 688.397C406.359 687.469 406.151 686.799 406.019 686.388L405.96 686.072C405.861 685.546 405.898 685.157 406.069 684.907C406.188 684.667 406.507 684.472 407.025 684.32L407.184 684.291C407.659 684.202 408.08 684.26 408.446 684.464C408.759 684.678 408.966 685.048 409.065 685.575L409.919 690.565C410.232 692.523 410.754 695.449 411.486 699.345L415.623 720.07L416.463 724.981C416.858 727.087 417.318 729.099 417.842 731.018C417.901 731.334 418.178 731.936 418.673 732.824L427.308 731.214L425.82 725.034L424.723 720.498C423.108 713.061 421.95 707.474 421.248 703.736C420.286 698.031 420.121 692.639 420.754 687.563C421.147 684.71 422.186 682.528 423.87 681.015Z" fill="black"/>
<path d="M361.217 689.514C361.7 689.486 362.11 689.597 362.447 689.846C362.784 690.096 362.94 690.462 362.914 690.947C363.043 695.124 363.113 698.231 363.121 700.27L363.215 704.771L364.633 716.922C364.898 716.854 365.244 716.78 365.67 716.703C366.042 716.628 366.306 716.533 366.461 716.417C366.666 716.244 367.001 715.984 367.466 715.635C367.934 715.341 368.322 715.077 368.632 714.845C368.888 714.616 369.084 714.283 369.221 713.846C369.358 713.409 369.566 712.808 369.845 712.041C370.124 711.274 370.353 710.564 370.531 709.91C370.658 709.312 370.702 708.666 370.663 707.971L370.492 703.555L370.161 699.148C370.108 697.273 370.376 695.353 370.964 693.389C371.501 691.481 372.322 690.308 373.428 689.87C373.586 689.807 373.826 689.767 374.147 689.749C374.577 689.724 375.042 689.859 375.543 690.153C375.99 690.449 376.226 690.811 376.25 691.239C376.275 691.667 376.028 692.056 375.51 692.408C375.096 692.699 374.79 693.012 374.594 693.345C374.347 693.734 374.158 694.201 374.028 694.745C373.449 696.87 373.222 699.028 373.347 701.221C373.499 703.894 373.541 706.065 373.475 707.732C373.357 709.455 373.005 711.299 372.417 713.263C372.236 713.864 371.803 714.773 371.119 715.992L370.24 717.571C372.03 718.757 373.389 719.941 374.317 721.123C375.245 722.304 375.761 723.804 375.865 725.622C375.886 725.996 375.864 726.561 375.799 727.316C375.747 728.284 375.74 729.116 375.78 729.811C375.769 730.563 375.777 731.18 375.804 731.661C375.773 735.847 374.215 739.208 371.13 741.742C369.379 743.129 367.511 743.878 365.526 743.99C364.561 744.045 363.905 743.867 363.559 743.458C363.159 743.051 362.985 742.364 363.038 741.395C363.238 739.238 363.247 736.555 363.064 733.346L362.631 725.726C362.436 722.304 362.264 719.738 362.113 718.03C361.973 715.57 361.755 713.168 361.461 710.825C361.214 708.371 361.058 706.582 360.994 705.459L360.346 694.069C360.313 693.481 360.257 692.974 360.179 692.55C360.101 692.125 360.026 691.754 359.954 691.436L359.941 691.195C359.916 690.767 360.004 690.414 360.203 690.134C360.4 689.801 360.684 689.597 361.057 689.523L361.217 689.514ZM368.928 720.059C368.153 719.674 367.417 719.501 366.719 719.54C366.022 719.58 365.39 719.83 364.825 720.291L365.935 741.231L367.427 740.503C368.371 740.074 369.022 739.689 369.38 739.347C371.213 737.526 372.306 735.453 372.659 733.126C372.895 731.611 372.953 729.783 372.831 727.644C372.755 726.307 372.672 725.32 372.582 724.681C372.076 722.403 370.858 720.862 368.928 720.059Z" fill="black"/>
<path d="M298.96 688.734C300.378 691.025 300.797 693.669 300.218 696.667L299.88 697.993C299.736 698.456 299.48 698.789 299.112 698.991C298.682 699.235 298.266 699.265 297.864 699.078C297.136 698.884 296.941 698.192 297.28 697.003C297.404 696.645 297.537 696.098 297.679 695.361C298.035 693.52 297.807 691.868 296.996 690.403C296.188 690.902 295.602 691.526 295.239 692.275C294.823 693.013 294.492 693.877 294.246 694.866C293.324 698.507 292.658 701.243 292.25 703.074L290.931 708.63C290.571 709.924 290.194 711.025 289.8 711.931C289.396 712.89 288.881 713.718 288.253 714.416C287.417 715.346 286.811 716.784 286.435 718.73C285.777 722.422 285.229 726.108 284.792 729.788C284.639 730.576 284.464 731.77 284.264 733.368C284.124 734.378 284.156 735.202 284.361 735.841C284.503 736.523 284.899 737.308 285.548 738.196C286.532 737.349 287.244 736.64 287.682 736.07C288.111 735.552 288.416 734.82 288.599 733.873C288.701 733.347 288.756 732.921 288.764 732.595L288.871 732.043C289.074 730.991 289.597 730.546 290.442 730.708C290.917 730.799 291.308 731.038 291.617 731.425C291.862 731.854 291.934 732.331 291.832 732.857C291.213 736.065 290.191 738.378 288.768 739.796C288.297 740.251 287.794 740.591 287.258 740.815C286.67 741.03 286.085 741.081 285.505 740.97C284.502 740.777 283.734 740.221 283.201 739.3C281.923 737.419 281.455 735.447 281.799 733.386C282.079 731.367 282.248 729.927 282.305 729.065C282.417 728.486 282.521 727.661 282.619 726.589C282.9 724.57 283.167 722.903 283.421 721.588L284.223 716.587L284.064 716.557C283.853 716.517 283.579 716.518 283.242 716.563C282.853 716.597 282.505 716.558 282.198 716.444C282.034 717.013 281.84 717.876 281.616 719.033C280.367 725.502 279.032 731.137 277.612 735.937L277.551 736.252L277.417 737.372L277.374 738.018C277.242 738.702 276.886 738.988 276.306 738.877C276.042 738.826 275.455 738.605 274.546 738.212C274.739 737.213 275.082 735.724 275.573 733.745C276.227 730.926 276.686 728.832 276.951 727.464C277.091 726.455 277.432 724.83 277.975 722.588L278.816 718.659C279.07 717.344 279.226 716.392 279.285 715.803L278.761 715.539C278.175 716.027 277.809 716.502 277.665 716.965C277.042 718.209 276.368 719.716 275.643 721.486C275.373 722.034 275.082 722.688 274.772 723.446C274.461 724.205 274.082 725.032 273.636 725.928C273.386 726.371 273.131 726.841 272.871 727.336C272.549 727.874 272.226 728.412 271.903 728.95C270.926 730.89 269.678 733.105 268.157 735.595C267.741 736.333 267.323 736.798 266.903 736.99C266.482 737.183 265.956 737.218 265.323 737.096C264.478 736.934 263.706 736.541 263.006 735.915C262.306 735.29 262.006 734.578 262.106 733.779C262.088 732.739 262.246 731.351 262.582 729.616C262.805 728.459 263.051 727.469 263.319 726.648C263.502 725.701 263.989 725.304 264.78 725.456C265.202 725.537 265.52 725.734 265.733 726.048C265.946 726.362 266.007 726.755 265.915 727.228C265.824 727.702 265.696 728.223 265.532 728.791C265.314 729.349 265.145 729.944 265.023 730.575C264.748 731.995 264.862 733.108 265.363 733.913C266.353 733.885 267.066 733.313 267.5 732.196C269.09 729.065 270.399 726.398 271.426 724.195L273.591 719.783C273.935 719.14 274.542 717.839 275.413 715.878C275.506 715.678 275.594 715.368 275.675 714.947C275.817 714.211 275.712 713.481 275.359 712.759C274.943 712.079 274.695 711.377 274.616 710.653C274.527 709.981 274.51 709.078 274.565 707.943C274.628 706.483 274.828 704.884 275.163 703.149C275.356 702.149 275.729 700.503 276.281 698.209L276.848 695.7C277 694.911 277.134 693.654 277.248 691.931C277.329 691.51 277.398 690.869 277.455 690.007C277.516 689.691 277.407 689.125 277.127 688.308C276.784 687.533 276.375 687.1 275.9 687.009C275.584 686.948 275.226 687.097 274.829 687.457C274.378 687.807 274.045 688.398 273.83 689.229C273.736 689.43 273.309 690.793 272.547 693.32L272.038 695.104C271.505 695.601 271.106 695.825 270.842 695.774C270.578 695.723 270.35 695.489 270.157 695.07C269.901 694.694 269.814 694.295 269.896 693.874C270.164 693.053 270.343 692.406 270.435 691.932C271.113 689.553 271.67 687.806 272.104 686.689C272.403 685.71 272.941 685.05 273.718 684.708C274.443 684.356 275.28 684.271 276.23 684.454C277.021 684.605 277.703 684.9 278.275 685.337C278.794 685.764 279.13 686.292 279.282 686.921C279.674 688.578 279.878 689.927 279.896 690.966C279.76 692.522 279.455 694.809 278.982 697.827C278.656 699.51 278.439 700.778 278.329 701.629C277.831 704.206 277.482 706.157 277.281 707.482C276.976 709.06 277.118 710.451 277.706 711.655C278.081 712.545 278.824 713.233 279.934 713.719C280.602 711.393 281.109 709.335 281.454 707.547C281.556 707.021 281.818 705.381 282.241 702.625C283.236 697.471 283.957 693.6 284.402 691.013C284.513 690.434 284.584 689.93 284.612 689.499C284.641 689.068 284.659 688.69 284.667 688.364L284.759 687.891C284.962 686.839 285.591 686.414 286.646 686.616L286.805 686.647C287.279 686.738 287.597 686.935 287.757 687.239C287.907 687.595 287.943 688.12 287.863 688.814L287.205 691.796C285.718 698.929 284.624 704.31 283.923 707.939C283.687 708.876 283.53 709.691 283.451 710.385C283.308 711.121 283.192 711.726 283.1 712.199L282.689 714.329L283.291 714.609C283.766 714.7 284.266 714.523 284.789 714.078C286.456 712.816 287.654 710.864 288.383 708.222C288.773 706.77 289.039 705.676 289.181 704.939L289.547 703.046C289.628 702.625 289.73 702.099 289.852 701.468C289.91 700.879 290.043 700.195 290.248 699.417L290.927 697.174C291.492 695.101 292.017 693.374 292.502 691.995C292.987 690.615 293.554 689.524 294.201 688.721C294.524 688.183 294.954 687.802 295.489 687.577C296.035 687.3 296.572 687.212 297.1 687.314C297.839 687.455 298.458 687.929 298.96 688.734Z" fill="black"/>
<path d="M246.554 678.016C247.212 678.25 247.622 678.538 247.785 678.881C247.929 679.273 247.884 679.798 247.649 680.453C239.501 704.625 234.952 718.674 234.001 722.602C233.81 723.614 233.472 725.115 232.987 727.103C232.803 727.777 232.495 728.237 232.065 728.482C231.567 728.759 231.039 728.799 230.482 728.6C229.521 728.258 229.275 727.431 229.745 726.12C230.428 724.372 232.017 719.62 234.511 711.863C235.422 709.002 236.32 706.336 237.206 703.865C238.417 700.485 239.859 696.221 241.533 691.073L243.604 683.62L242.726 684.161C239.99 687.338 236.502 691.499 232.262 696.644C228.022 701.789 225.474 704.92 224.617 706.037L222.763 708.107C221.23 709.836 219.931 711.392 218.864 712.776C218.235 713.576 217.306 714.894 216.077 716.732C215.148 718.05 214.265 719.243 213.426 720.309C212.569 721.426 211.944 722.057 211.55 722.201C211.293 722.28 210.979 722.282 210.607 722.206C210.216 722.181 209.904 722.098 209.669 721.958C209.535 721.853 209.446 721.622 209.403 721.266C209.342 720.96 209.356 720.68 209.446 720.428C209.703 719.553 210.047 718.594 210.477 717.553C210.838 716.544 211.173 715.611 211.48 714.754L212.618 711.576C213.323 709.609 214.28 706.622 215.487 702.615C215.838 701.318 216.432 699.34 217.271 696.682C217.546 695.756 217.999 694.41 218.632 692.644C219.608 689.921 220.356 687.912 220.877 686.619L223.149 680.517C224.016 678.096 224.808 675.648 225.524 673.173L225.578 673.021C225.704 672.668 225.999 672.404 226.462 672.227C226.856 672.083 227.289 672.067 227.763 672.178C228.218 672.341 228.578 672.611 228.842 672.989C229.037 673.4 229.037 673.798 228.842 674.183L226.608 679.701L221.95 691.266L221.137 693.536C219.846 697.456 218.313 701.972 216.539 707.085C214.746 712.248 213.806 714.871 213.719 714.954L214.223 715.219L224.639 702.632C233.784 691.442 240.776 683.153 245.616 677.767L246.554 678.016Z" fill="black"/>
<path d="M200 659.049C200.381 659.248 200.64 659.564 200.776 659.998C200.865 660.407 200.797 660.825 200.573 661.252L199.486 663.496C198.59 665.205 197.127 667.646 195.098 670.819C192.918 674.397 191.492 676.827 190.819 678.109L189.21 681.349C188.759 682.323 188.235 683.38 187.638 684.519C186.642 686.418 185.089 689.204 182.979 692.88C180.819 696.65 179.253 699.46 178.282 701.311L176.187 705.478L176.286 705.982L176.062 706.41C175.414 707.644 174.591 708 173.591 707.479C172.829 707.082 171.753 706.128 170.363 704.617C168.9 703.129 168.268 702.195 168.467 701.816L168.579 701.602C168.444 699.779 168.595 698.105 169.031 696.579C169.42 695.029 170.175 693.186 171.296 691.05C173.113 687.585 174.976 684.96 176.883 683.174L176.812 683.137C177.201 682.856 177.906 682.438 178.926 681.881L180.71 680.908C180.202 679.796 179.998 678.451 180.099 676.872C180.152 675.267 180.419 673.835 180.898 672.574C181.075 672.122 181.301 671.575 181.577 670.933C181.853 670.291 182.192 669.531 182.592 668.652L183.492 666.763L184.015 665.767C186.406 661.21 189.602 658.585 193.604 657.891C195.678 657.522 197.81 657.908 200 659.049ZM183.891 684.379C180.749 682.741 177.521 685.078 174.209 691.391C173.936 691.913 173.448 692.958 172.746 694.526L172.108 695.916L172.176 696.133C171.545 697.799 171.159 699.169 171.019 700.245C170.909 701.033 171.016 701.754 171.34 702.407C171.64 703.107 172.099 703.618 172.718 703.941C173.766 704.487 175.921 701.651 179.183 695.434C179.805 694.247 180.205 693.428 180.381 692.976L182.398 689.132C182.844 688.397 183.316 687.555 183.814 686.606L184.263 685.752C184.263 685.752 184.29 685.584 184.344 685.25L184.462 684.677L183.891 684.379ZM197.401 661.23C196.258 660.635 195.011 660.468 193.661 660.731C192.262 660.969 190.966 661.533 189.772 662.421C188.553 663.358 187.633 664.419 187.01 665.605L186.789 665.853L186.08 667.206C185.034 669.199 184.204 671.185 183.591 673.162C182.845 675.855 182.852 678.096 183.613 679.882C184.051 680.896 184.794 681.677 185.841 682.223C188.146 678.407 189.958 675.242 191.278 672.726L192.137 671.089C192.859 669.713 193.361 668.584 193.641 667.702C194.103 667.399 194.82 666.322 195.791 664.471L196.762 662.62L197.401 661.23Z" fill="black"/>
<path d="M160.845 636.299C166.002 639.883 162.925 649.759 151.616 665.928L150.003 668.234C141.428 680.492 135.555 685.519 132.381 683.313C132.161 683.16 131.898 682.88 131.594 682.472C130.521 681.008 129.348 679.736 128.074 678.654C127.359 677.897 127.121 676.458 127.359 674.338C127.54 672.113 128.317 669.551 129.689 666.653C131.017 663.723 132.634 660.897 134.54 658.173L134.902 657.935C135.916 656.485 136.801 655.174 137.556 654.001L140.256 650.001C141.823 647.76 143.325 645.8 144.761 644.121C146.931 641.581 149.016 639.537 151.016 637.989C152.242 637.078 153.397 636.411 154.479 635.988C155.517 635.534 156.595 635.304 157.713 635.297C158.787 635.26 159.831 635.594 160.845 636.299ZM159.772 638.394C158.053 637.199 155.93 637.519 153.402 639.353C150.844 641.232 148.585 643.384 146.626 645.809C144.606 648.323 143.043 650.371 141.936 651.952C140.707 653.71 139.026 656.394 136.894 660.005C134.44 663.98 132.737 666.649 131.785 668.011L131.68 668.722L131.318 668.96C129.965 670.893 129.349 672.946 129.467 675.117C129.542 677.259 130.35 678.865 131.893 679.937C133.92 681.347 135.808 681.222 137.557 679.565C138.106 678.967 138.855 678.084 139.804 676.915C142.078 673.664 143.762 671.537 144.857 670.534C145.318 669.875 146.106 668.889 147.222 667.575L149.52 664.569C150.196 663.602 150.774 662.73 151.252 661.953L153.03 659.271C154.474 657.206 155.957 654.711 157.479 651.785C158.598 649.624 159.457 647.74 160.057 646.133C160.657 644.526 160.965 643.01 160.98 641.584C161.056 640.07 160.654 639.006 159.772 638.394Z" fill="black"/>
<path d="M126.856 614.287L124.916 616.547C124.38 617.219 123.752 617.952 123.031 618.747C122.671 619.144 122.345 619.464 122.053 619.707L121.021 620.726C120.66 621.123 120.308 621.672 119.963 622.372C117.55 625.035 113.265 630.163 107.108 637.756C101.168 645.11 97.083 650.057 94.8538 652.597C97.3259 654.823 98.9266 656.373 99.6559 657.246C100.273 658.163 100.384 658.84 99.9877 659.277C99.3921 659.535 98.8152 659.412 98.257 658.91C97.0608 657.833 95.3983 656.191 93.2696 653.986C91.3763 651.92 89.7319 650.259 88.3363 649.002L87.0803 647.871L85.7703 646.8C85.0525 646.154 84.9278 645.572 85.396 645.056C85.6121 644.817 85.9318 644.744 86.355 644.836C86.7023 644.933 87.0554 645.142 87.4142 645.465C88.2117 646.183 89.013 646.977 89.8182 647.847L92.2819 650.282C92.4414 650.425 92.5752 650.437 92.6833 650.318C92.8312 650.235 93.1933 649.875 93.7696 649.239C97.2634 645.384 102.319 639.326 108.936 631.065C115.845 622.562 120.902 616.542 124.108 613.004C124.36 612.726 124.774 612.629 125.349 612.714C125.884 612.763 126.311 612.93 126.63 613.218L126.856 614.287Z" fill="black"/>
<path d="M94.1207 579.827C94.542 580.313 94.7646 580.652 94.7886 580.844C94.8182 580.96 94.7109 581.123 94.4668 581.333C94.1008 581.648 93.7929 581.948 93.5433 582.234C86.362 588.696 81.4087 593.099 78.6834 595.444L78.5973 595.836L77.8375 596.065C77.1054 596.695 76.4231 597.424 75.7906 598.251L76.3365 599.373C76.7746 599.633 77.1867 599.986 77.5729 600.432C77.8537 600.756 78.3313 601.513 79.0057 602.702C79.3992 603.566 79.8417 604.282 80.3332 604.849L81.1565 605.308C82.5802 604.084 83.8791 603.001 85.0531 602.062C86.2271 601.123 87.526 600.041 88.9497 598.816L89.0884 598.484C90.2273 597.504 91.8831 595.973 94.0556 593.892C96.1875 591.846 97.8229 590.332 98.9618 589.352C99.4093 588.967 99.8659 588.716 100.332 588.598C100.757 588.515 101.11 588.636 101.391 588.961C102.163 589.853 101.329 591.349 98.8885 593.448C96.8141 595.233 94.9254 596.823 93.2226 598.217L87.6176 602.933C83.9161 606.118 81.9756 607.894 81.7962 608.26C81.2139 608.408 79.7838 609.461 77.5059 611.421C75.5535 613.101 73.2441 615.229 70.5779 617.806L68.3036 619.975L63.6499 624.192C63.3651 624.437 63.013 624.563 62.5934 624.57C62.1738 624.577 61.8411 624.439 61.5953 624.155C60.8931 623.344 61.7216 621.924 64.0809 619.894C66.8469 617.514 69.366 615.382 71.6383 613.498C73.9457 611.654 76.4417 609.577 79.1264 607.267C79.6145 606.847 78.5244 605.097 75.8561 602.015L75.6455 601.772C74.9784 601.002 74.362 600.577 73.7964 600.497C73.155 600.412 72.4683 600.685 71.7361 601.315C69.5803 603.17 66.8965 605.726 63.6848 608.985C60.1532 612.448 57.4519 614.984 55.5808 616.594C55.3367 616.804 55.0455 616.878 54.7073 616.815C54.3284 616.787 54.016 616.632 53.7703 616.348L53.4793 615.643C53.2742 615.324 53.1773 615.089 53.1884 614.938C56.3612 612.208 60.9946 608.009 67.0888 602.342C73.2236 596.639 77.8774 592.422 81.0502 589.693C84.2229 586.963 87.9523 583.401 92.2383 579.005L92.6044 578.69C93.1237 578.88 93.6292 579.259 94.1207 579.827ZM74.4226 602.081L74.4393 601.855L74.5446 601.976L74.4226 602.081Z" fill="black"/>
<path d="M51.5728 553.243C56.7945 549.459 60.6962 546.598 63.2777 544.661C63.7275 544.368 64.2508 544.188 64.8476 544.119C65.37 544.035 65.7928 544.239 66.1161 544.732C66.6451 545.539 66.4822 546.221 65.6275 546.778C62.4199 548.739 60.0288 550.232 58.4544 551.257C56.61 552.458 53.8123 554.408 50.0612 557.107L46.5938 559.749L30.2619 570.672C29.7965 571.039 29.2117 571.42 28.5075 571.814C27.8034 572.209 27.2489 572.538 26.844 572.802C25.9893 573.358 25.1709 574.019 24.3888 574.784C24.2832 574.917 24.1404 575.042 23.9605 575.159C23.2857 575.599 22.7514 575.371 22.3573 574.476C21.8751 573.446 22.122 572.55 23.0978 571.786C23.5633 571.419 24.3358 570.884 25.4154 570.181C26.4501 569.508 27.252 569.017 27.8212 568.711L41.625 560.393L51.5728 553.243ZM46.3038 571.646C45.6884 570.511 45.5904 569.039 46.0097 567.231C46.429 565.422 47.2019 564.055 48.3283 563.13C49.7402 561.954 52.6288 559.849 56.994 556.815C58.3885 555.906 60.0433 555.053 61.9585 554.253C63.8442 553.409 65.5706 552.861 67.1379 552.608C69.0338 552.269 71.237 553.329 73.7476 555.789C74.1764 556.15 74.5084 556.509 74.7435 556.868C75.6251 558.213 75.2112 559.443 73.5018 560.556L70.7353 562.357L58.5455 570.199C57.4659 570.902 55.9209 571.972 53.9104 573.41L51.5928 575.015C50.873 575.484 49.4042 576.376 47.1861 577.693C44.0684 579.595 41.2725 581.352 38.7984 582.963C38.1237 583.402 37.1712 584.054 35.941 584.919C34.6659 585.814 33.8328 586.452 33.4417 586.835C33.3811 586.938 33.2384 587.063 33.0134 587.21C32.4736 587.561 31.9374 587.527 31.4049 587.106C31.1386 586.895 30.9613 586.723 30.8732 586.588C30.6087 586.185 30.6054 585.739 30.8633 585.251C31.0918 584.718 31.5435 584.232 32.2183 583.793C38.2011 579.897 42.5109 577.218 45.1476 575.757L46.7202 574.925C47.4831 574.62 48.0445 574.351 48.4044 574.116C48.1243 573.787 47.7777 573.405 47.3644 572.97C46.8768 572.52 46.5233 572.078 46.3038 571.646ZM63.8882 555.876C61.5838 556.865 59.1496 558.194 56.5855 559.864C53.7515 561.709 51.6414 563.435 50.2553 565.042C49.487 565.926 48.978 566.961 48.7285 568.147C48.4789 569.333 48.6774 570.42 49.3239 571.406C49.5884 571.81 49.9204 572.169 50.3198 572.485L66.7165 561.807C67.8861 561.046 68.8611 560.379 69.6414 559.807C70.3474 559.219 70.9945 558.542 71.5829 557.775C69.0568 555.389 66.4918 554.756 63.8882 555.876Z" fill="black"/>
<path d="M52.0183 520.159C52.4663 521.074 52.4006 521.672 51.8211 521.954C49.4069 523.129 45.3107 524.289 39.5324 525.432C33.8024 526.552 29.682 527.723 27.1712 528.945C25.8193 529.603 22.4679 532.039 17.1172 536.252C11.7665 540.466 8.93164 542.918 8.61269 543.61L8.32298 543.751C8.25112 543.726 8.19105 543.726 8.14277 543.749C8.09448 543.773 8.07034 543.785 8.07034 543.785C7.78063 543.926 7.50158 544.211 7.23318 544.639C6.74807 545.114 6.50552 545.351 6.50552 545.351C6.31238 545.445 6.07266 545.383 5.78635 545.165C5.47647 544.898 5.26259 544.645 5.14471 544.404C4.95611 544.019 5.09257 543.565 5.5541 543.042C5.99206 542.472 6.50132 541.985 7.08186 541.584L8.71231 540.701C10.3619 539.063 12.4814 537.287 15.0709 535.371C17.9512 533.194 19.9489 531.596 21.0639 530.576C20.3431 530.569 18.2832 531.125 14.8842 532.243C11.4617 533.312 8.91835 534.163 7.25424 534.794C3.20174 536.409 1.0447 537.071 0.783098 536.781C0.783098 536.781 0.640511 536.612 0.355338 536.274L0 535.732L0.55085 534.659C2.0386 534.889 4.35172 534.24 7.49021 532.712L7.92477 532.501L8.32397 532.217L8.43176 532.254C10.2643 531.6 13.1557 530.789 17.106 529.82C21.4661 528.711 24.6601 527.664 26.688 526.677C27.4606 526.3 30.365 524.112 35.4013 520.111C40.4376 516.11 43.3443 513.682 44.1214 512.827C44.1697 512.804 44.3039 512.589 44.524 512.184C44.9867 511.542 45.4112 511.126 45.7974 510.938C46.0871 510.797 46.3875 510.8 46.6985 510.947C46.986 511.045 47.2004 511.239 47.3419 511.528C47.5069 511.865 47.5877 512.213 47.5843 512.572L42.7164 516.551C38.9366 519.821 35.3528 522.698 31.965 525.181C33.117 525.336 35.8871 524.643 40.2754 523.103C44.8084 521.493 47.6763 520.634 48.8788 520.525C49.0248 520.335 49.291 520.146 49.6772 519.958C50.1601 519.723 50.6418 519.608 51.1224 519.612C51.5311 519.592 51.8297 519.774 52.0183 520.159Z" fill="black"/>
</svg>
