<svg width="257" height="55" viewBox="0 0 257 55" fill="none" xmlns="http://www.w3.org/2000/svg">
<path d="M1.36737 30.7232C1.0201 30.7232 0.694536 30.6089 0.390676 30.3803C0.130225 30.1517 0 29.8774 0 29.5574C0 29.1002 1.36737 28.6658 4.1021 28.2544C6.88025 27.7972 9.2243 27.5686 11.1343 27.5686C11.4815 27.5686 11.8071 27.6829 12.111 27.9115C12.4148 28.1401 12.5668 28.4144 12.5668 28.7344C12.5668 29.1916 11.1994 29.6488 8.46465 30.106C5.72992 30.5175 3.36416 30.7232 1.36737 30.7232Z" fill="black"/>
<path d="M48.9404 54.5885C48.5497 54.5885 48.2892 54.4285 48.159 54.1085C48.1156 53.8342 47.5947 51.914 46.5963 48.3479L44.3173 39.9813C41.9299 31.2947 40.3889 25.9227 39.6943 23.8653L39.3037 22.6995C39.2603 22.7909 39.1734 22.9281 39.0432 23.111C38.9564 23.2938 38.7828 23.591 38.5223 24.0025C38.0014 25.0083 37.5673 25.7855 37.2201 26.3342L36.3085 27.9115V52.3254C36.3085 53.1027 36.2434 53.6284 36.1131 53.9027C35.9829 54.2228 35.7008 54.3828 35.2667 54.3828C34.8326 54.3828 34.5287 54.2228 34.3551 53.9027C34.2249 53.5827 34.1598 53.0112 34.1598 52.1883V31.4776C34.1598 28.7801 34.2249 24.3911 34.3551 18.3105L34.4853 5.14339C34.4853 4.27473 34.5287 3.47465 34.6156 2.74314C34.7458 2.19451 34.9845 1.9202 35.3318 1.9202C35.9829 1.9202 36.3736 2.08021 36.5038 2.40025C36.6775 2.72028 36.7643 3.54322 36.7643 4.86908L36.634 16.2531L36.5038 24.5511H36.5689C37.3937 22.6309 38.5657 19.7506 40.085 15.9102L42.4942 9.53242C44.9251 3.17747 46.4661 0 47.1172 0C47.4211 0 47.6815 0.0914382 47.8985 0.274315C48.1156 0.457191 48.2241 0.708645 48.2241 1.02868C48.0939 1.89734 47.7466 2.81172 47.1823 3.77182L46.5312 5.00623C45.7932 6.83499 44.708 9.57814 43.2755 13.2357C41.5392 17.6704 40.6059 20.0021 40.4757 20.2307C40.4323 20.5507 40.454 20.825 40.5408 21.0536C41.409 23.3853 42.3857 26.2656 43.4709 29.6945C44.5561 33.1234 45.446 36.0952 46.1405 38.6097C46.8785 41.3529 47.6164 44.1417 48.3543 46.9763C49.1357 49.8109 49.6783 51.8454 49.9822 53.0798C50.069 53.3541 50.1124 53.5141 50.1124 53.5598C50.1124 53.8799 49.9822 54.1313 49.7217 54.3142C49.5047 54.4971 49.2442 54.5885 48.9404 54.5885Z" fill="black"/>
<path d="M79.0504 54.7943C78.052 54.7943 77.1187 54.5657 76.2506 54.1085C75.3824 53.6513 74.6662 53.0569 74.1018 52.3254C73.5375 51.6396 73.0383 50.7938 72.6042 49.788C72.1702 48.7822 71.8229 47.7764 71.5624 46.7706C71.1284 45.2161 70.8028 43.2731 70.5858 40.9414L70.4555 38.8155C70.4555 38.3583 70.4338 38.0611 70.3904 37.9239C70.3904 37.7868 70.3904 37.6953 70.3904 37.6496C70.1734 35.4094 69.8912 30.4717 69.544 22.8367C69.2401 15.2016 69.0882 9.2581 69.0882 5.00623V3.97755C69.0882 2.78886 69.4137 2.19451 70.0648 2.19451C70.9764 2.19451 71.4322 2.74314 71.4322 3.8404V4.32045L71.3671 4.86908C71.3671 10.1725 71.519 16.4589 71.8229 23.7282C72.1268 30.9518 72.4306 36.1638 72.7345 39.3641C72.9515 41.3757 73.3205 43.4331 73.8414 45.5362C74.1887 46.9534 74.5576 48.1421 74.9483 49.1022C75.3824 50.0623 75.925 50.8624 76.5761 51.5025C77.3575 52.234 78.1171 52.5997 78.8551 52.5997C79.593 52.5997 80.2441 52.4169 80.8085 52.0511C81.4162 51.6854 81.872 51.2053 82.1758 50.611C82.4797 50.1081 82.7184 49.468 82.8921 48.6908C83.1091 47.8678 83.2393 47.0906 83.2827 46.3591C83.3261 45.9019 83.3478 45.1475 83.3478 44.096V36.2781C83.3478 32.8034 83.261 28.5287 83.0874 23.4539L82.827 14.6758L82.6967 8.84663C82.5665 6.28637 82.5014 4.34331 82.5014 3.01745C82.5014 2.51455 82.6316 2.12593 82.8921 1.85162C83.1525 1.57731 83.4564 1.44015 83.8036 1.44015C84.1509 1.44015 84.4331 1.57731 84.6501 1.85162C84.9106 2.12593 85.0408 2.51455 85.0408 3.01745V8.22943C85.0408 10.5154 85.0625 12.5727 85.1059 14.4015V20.5736C85.1059 25.0083 85.1493 28.8944 85.2361 32.2319C85.2795 35.6151 85.3012 39.4098 85.3012 43.616C85.3012 44.7589 85.2578 45.7648 85.171 46.6334C85.0842 47.5021 84.9106 48.4165 84.6501 49.3766C84.3897 50.4738 84.0207 51.4111 83.5432 52.1883C83.1091 52.9198 82.5231 53.537 81.7851 54.0399C80.9604 54.5428 80.0488 54.7943 79.0504 54.7943Z" fill="black"/>
<path d="M123.657 54.5885C123.267 54.5885 123.006 54.4285 122.876 54.1085C122.832 53.8342 122.312 51.914 121.313 48.3479L119.034 39.9813C116.647 31.2947 115.106 25.9227 114.411 23.8653L114.021 22.6995C113.977 22.7909 113.89 22.9281 113.76 23.111C113.673 23.2938 113.5 23.591 113.239 24.0025C112.718 25.0083 112.284 25.7855 111.937 26.3342L111.025 27.9115V52.3254C111.025 53.1027 110.96 53.6284 110.83 53.9027C110.7 54.2228 110.418 54.3828 109.984 54.3828C109.549 54.3828 109.246 54.2228 109.072 53.9027C108.942 53.5827 108.877 53.0112 108.877 52.1883V31.4776C108.877 28.7801 108.942 24.3911 109.072 18.3105L109.202 5.14339C109.202 4.27473 109.246 3.47465 109.332 2.74314C109.463 2.19451 109.701 1.9202 110.049 1.9202C110.7 1.9202 111.09 2.08021 111.221 2.40025C111.394 2.72028 111.481 3.54322 111.481 4.86908L111.351 16.2531L111.221 24.5511H111.286C112.111 22.6309 113.283 19.7506 114.802 15.9102L117.211 9.53242C119.642 3.17747 121.183 0 121.834 0C122.138 0 122.398 0.0914382 122.615 0.274315C122.832 0.457191 122.941 0.708645 122.941 1.02868C122.811 1.89734 122.463 2.81172 121.899 3.77182L121.248 5.00623C120.51 6.83499 119.425 9.57814 117.992 13.2357C116.256 17.6704 115.323 20.0021 115.193 20.2307C115.149 20.5507 115.171 20.825 115.258 21.0536C116.126 23.3853 117.103 26.2656 118.188 29.6945C119.273 33.1234 120.163 36.0952 120.857 38.6097C121.595 41.3529 122.333 44.1417 123.071 46.9763C123.853 49.8109 124.395 51.8454 124.699 53.0798C124.786 53.3541 124.829 53.5141 124.829 53.5598C124.829 53.8799 124.699 54.1313 124.439 54.3142C124.222 54.4971 123.961 54.5885 123.657 54.5885Z" fill="black"/>
<path d="M146.979 55C146.198 55 145.59 54.9543 145.156 54.8628C144.766 54.8171 144.331 54.68 143.854 54.4514C143.333 54.1771 142.942 53.7884 142.682 53.2855C142.682 52.7369 142.921 52.4626 143.398 52.4626C143.876 52.4626 144.483 52.6226 145.221 52.9426C145.916 53.3084 146.502 53.4913 146.979 53.4913C147.934 53.4913 148.802 53.0798 149.584 52.2569C150.409 51.4339 151.038 50.3595 151.472 49.0337C152.34 46.4277 152.774 44.1189 152.774 42.1072C152.774 39.867 152.47 37.6039 151.863 35.318C151.255 33.032 150.452 30.8832 149.454 28.8716C149.237 28.3687 148.868 27.6143 148.347 26.6085C147.261 24.3225 146.437 22.5395 145.872 21.2593C145.308 19.9792 144.809 18.5619 144.375 17.0075C143.767 14.9501 143.463 12.7328 143.463 10.3554C143.463 8.84663 143.68 7.40648 144.114 6.03491C144.592 4.61762 145.33 3.40607 146.328 2.40025C147.413 1.34871 148.629 0.822944 149.975 0.822944C150.495 0.822944 151.125 1.05154 151.863 1.50873C152.601 1.9202 152.97 2.33167 152.97 2.74314C152.97 3.10889 152.839 3.29177 152.579 3.29177C152.319 3.29177 151.971 3.17747 151.537 2.94888C151.147 2.72028 150.778 2.60598 150.43 2.60598C149.432 2.60598 148.542 2.9946 147.761 3.77182C147.023 4.54905 146.48 5.50914 146.133 6.65212C145.829 7.61222 145.677 8.66375 145.677 9.80673C145.677 11.5898 145.894 13.4414 146.328 15.3616C146.762 17.2361 147.348 18.9963 148.086 20.6421L150.365 25.6484L151.016 27.0885C151.928 29.0544 152.622 30.6775 153.1 31.9576C153.621 33.2377 154.055 34.6779 154.402 36.2781C154.88 38.4268 155.118 40.4842 155.118 42.4501C155.118 45.1018 154.467 47.7993 153.165 50.5424C152.514 51.8682 151.646 52.9426 150.561 53.7656C149.475 54.5885 148.282 55 146.979 55Z" fill="black"/>
<path d="M183.49 53.217C182.448 53.1712 181.125 53.1484 179.518 53.1484C179.215 53.1484 178.932 53.0341 178.672 52.8055C178.455 52.5769 178.346 52.3254 178.346 52.0511C178.346 51.4568 178.715 51.1596 179.453 51.1596H181.993C181.993 45.9019 181.841 39.2727 181.537 31.2718C181.363 24.8712 181.19 19.8421 181.016 16.1845L181.081 12.687V8.16085C181.081 5.8749 181.038 4.41189 180.951 3.77182H178.672C178.238 3.77182 178.021 3.45179 178.021 2.81172C178.021 2.40025 178.194 2.08022 178.542 1.85162C178.846 1.71446 179.649 1.64588 180.951 1.64588H182.774C183.425 1.6916 184.25 1.71446 185.248 1.71446C185.596 1.71446 185.878 1.8059 186.095 1.98878C186.312 2.12593 186.42 2.35453 186.42 2.67456C186.42 2.94888 186.355 3.20033 186.225 3.42893C186.095 3.65752 185.899 3.77182 185.639 3.77182C185.335 3.77182 185.075 3.74896 184.858 3.70324H183.425C182.991 3.70324 182.731 3.74896 182.644 3.8404L182.514 4.11471C182.514 7.6808 182.796 14.8815 183.36 25.717C183.881 35.7294 184.141 42.9302 184.141 47.3192V49.2394C184.098 49.8337 184.076 50.451 184.076 51.091H186.42C187.419 51.091 187.918 51.411 187.918 52.0511C187.918 52.3254 187.809 52.5997 187.592 52.8741C187.419 53.1027 187.223 53.217 187.006 53.217H183.49Z" fill="black"/>
<path d="M225.588 54.5885C225.197 54.5885 224.937 54.4285 224.806 54.1085C224.763 53.8342 224.242 51.914 223.244 48.3479L220.965 39.9813C218.577 31.2947 217.036 25.9227 216.342 23.8653L215.951 22.6995C215.908 22.7909 215.821 22.9281 215.691 23.111C215.604 23.2938 215.43 23.591 215.17 24.0025C214.649 25.0083 214.215 25.7855 213.867 26.3342L212.956 27.9115V52.3254C212.956 53.1027 212.891 53.6284 212.76 53.9027C212.63 54.2228 212.348 54.3828 211.914 54.3828C211.48 54.3828 211.176 54.2228 211.002 53.9027C210.872 53.5827 210.807 53.0112 210.807 52.1883V31.4776C210.807 28.7801 210.872 24.3911 211.002 18.3105L211.133 5.14339C211.133 4.27473 211.176 3.47465 211.263 2.74314C211.393 2.19451 211.632 1.9202 211.979 1.9202C212.63 1.9202 213.021 2.08021 213.151 2.40025C213.325 2.72028 213.412 3.54322 213.412 4.86908L213.281 16.2531L213.151 24.5511H213.216C214.041 22.6309 215.213 19.7506 216.732 15.9102L219.142 9.53242C221.572 3.17747 223.113 0 223.765 0C224.068 0 224.329 0.0914382 224.546 0.274315C224.763 0.457191 224.871 0.708645 224.871 1.02868C224.741 1.89734 224.394 2.81172 223.83 3.77182L223.178 5.00623C222.441 6.83499 221.355 9.57814 219.923 13.2357C218.187 17.6704 217.253 20.0021 217.123 20.2307C217.08 20.5507 217.101 20.825 217.188 21.0536C218.056 23.3853 219.033 26.2656 220.118 29.6945C221.203 33.1234 222.093 36.0952 222.788 38.6097C223.526 41.3529 224.264 44.1417 225.002 46.9763C225.783 49.8109 226.326 51.8454 226.629 53.0798C226.716 53.3541 226.76 53.5141 226.76 53.5598C226.76 53.8799 226.63 54.1313 226.369 54.3142C226.152 54.4971 225.892 54.5885 225.588 54.5885Z" fill="black"/>
<path d="M245.801 30.7232C245.453 30.7232 245.128 30.6089 244.824 30.3803C244.563 30.1517 244.433 29.8774 244.433 29.5574C244.433 29.1002 245.801 28.6658 248.535 28.2544C251.314 27.7972 253.658 27.5686 255.568 27.5686C255.915 27.5686 256.24 27.6829 256.544 27.9115C256.848 28.1401 257 28.4144 257 28.7344C257 29.1916 255.633 29.6488 252.898 30.106C250.163 30.5175 247.797 30.7232 245.801 30.7232Z" fill="black"/>
</svg>
